<?xml version="1.0" encoding="UTF-8"?>
<svg xmlns="http://www.w3.org/2000/svg" viewBox="0 0 530.68 594.3">
  <defs>
    <style>
      .cls-1 {
        stroke: #c17052;
        stroke-width: 2.06px;
      }

      .cls-1, .cls-2, .cls-3, .cls-4, .cls-5 {
        stroke-miterlimit: 10;
      }

      .cls-1, .cls-6 {
        fill: #c17052;
      }

      .cls-2 {
        fill: #a9db54;
      }

      .cls-2, .cls-3 {
        stroke-width: 10px;
      }

      .cls-2, .cls-3, .cls-4, .cls-5 {
        stroke: #000;
      }

      .cls-3 {
        fill: #75a833;
      }

      .cls-4 {
        stroke-width: 13px;
      }

      .cls-4, .cls-7 {
        fill: #ac5346;
      }

      .cls-5 {
        fill: none;
        stroke-width: 6.66px;
      }

      .cls-8 {
        fill: #db9364;
      }
    </style>
  </defs>
  <g id="Laag_2" data-name="Laag 2">
    <g>
      <path class="cls-7" d="M421.36,325.64s.1.03.12.04c0,0,0,0,0,0,13.72,3.79,23.98,6.11,26.18,6.63,28.24,6.68,49.38,17.72,49.38,17.72,17.81,9.3,21.92,15.54,23.28,17.8,5.78,9.6,8.43,24.37,2.74,28.76-5.75,4.42-14.3-6.14-42.45-17.8-18.04-7.48-44.99-15.76-53.81-28.12-2.78-3.89-4.26-8.19-4.26-8.19-1.99-6.46-1.68-12.78-1.18-16.84Z"/>
      <path d="M420.24,329.71c18.89,5.68,38.18,9,56.67,16.09,12.38,4.75,26.12,10.43,35.89,19.6,4.38,4.11,6.91,9.63,8.36,15.71.77,3.23,2.01,9.11-.51,11.99-.52.6-1.39.3-3.18-.4-7.07-2.77-13.56-7.52-20.33-10.95-9.68-4.9-19.75-8.79-29.84-12.72-10.61-4.12-21.89-8.23-31.12-15.07-9.35-6.92-11.85-17.15-10.6-28.33.61-5.39-7.84-5.35-8.44,0-1.23,10.97.94,22.15,8.67,30.43,7.3,7.81,17.94,12.36,27.59,16.43,11.67,4.92,23.7,8.95,35.13,14.41,8.58,4.1,16.57,9.61,25.3,13.35,5.48,2.35,11.36,2.09,14.63-3.64,5.11-8.97.48-22.9-4.49-30.92-6.86-11.06-20.35-17.52-31.87-22.67-11.68-5.23-23.76-9.59-36.11-12.95-11.11-3.02-22.46-5.18-33.5-8.5-5.21-1.57-7.44,6.58-2.24,8.14Z"/>
    </g>
    <g>
      <path class="cls-7" d="M194.05,506.45c-16.67,4.55-36.75,13.08-37.59,30.34-.37,7.48,3.12,15.85-1.19,21.97-7.85,11.14-31.02.69-36.54,13.15,3.51,10.58,17.07,13.12,28.19,13.89,10.84.75,21.68,1.5,32.53,2.25,6.75.47,14.28.68,19.38-3.76,4.91-4.27,5.88-11.77,4.09-18.03-1.79-6.26-5.86-11.57-9.83-16.72,6.74-12.12,13.49-24.24,20.23-36.36"/>
      <path d="M192.45,500.66c-15.51,4.3-34.36,11.44-40.39,27.9-1.5,4.1-1.81,8.47-1.45,12.8.33,3.93,2.32,10.37-.2,13.95-3.25,4.62-12.82,3.36-17.61,3.71-6.85.5-14.29,1.95-18.3,8.16-4.97,7.68,3.5,16.15,10.1,19.5,8.38,4.26,17.9,4.82,27.1,5.45,11.36.78,23,2.41,34.38,2.13,10.74-.26,20.72-5.4,23.08-16.65,2.5-11.9-3.96-22.08-10.91-31.1v6.06c6.74-12.12,13.49-24.24,20.23-36.36,3.76-6.75-6.6-12.81-10.36-6.06-6.74,12.12-13.49,24.24-20.23,36.36-.95,1.7-1.28,4.39,0,6.06,4.85,6.3,12.39,15.16,9.19,23.78s-16.35,5.79-23.39,5.31c-10.21-.7-20.55-1.01-30.72-2.2-6.3-.74-15.89-2.3-18.48-9.14l-.6,4.62c2.99-5.98,14.45-3.97,19.98-4.63,9.85-1.17,18.21-6.18,19.39-16.87.62-5.6-1.23-11.08-.82-16.65.34-4.69,2.75-8.57,6.11-11.74,7.28-6.88,17.64-10.19,27.08-12.81,7.43-2.06,4.28-13.64-3.19-11.57h0Z"/>
    </g>
    <g>
      <path class="cls-7" d="M109.09,325.64s-.1.03-.12.04c0,0,0,0,0,0-13.72,3.79-23.98,6.11-26.18,6.63-28.24,6.68-49.38,17.72-49.38,17.72-17.81,9.3-21.92,15.54-23.28,17.8-5.78,9.6-8.43,24.37-2.74,28.76,5.75,4.42,14.3-6.14,42.45-17.8,18.04-7.48,44.99-15.76,53.81-28.12,2.78-3.89,4.26-8.19,4.26-8.19,1.99-6.46,1.68-12.78,1.18-16.84Z"/>
      <path d="M107.97,321.57c-9.26,2.79-18.75,4.8-28.14,7.11-12.36,3.03-24.44,7.13-36.17,12.05-12.81,5.38-28.07,11.87-36.26,23.56-5.03,7.18-8.23,17.42-7.22,26.19.81,7,5.74,12.76,13.16,10.96s13.86-6.94,20.29-10.36c11.59-6.16,23.76-10.72,35.93-15.54,11.31-4.48,23.31-9.11,32.63-17.16s12.47-20.61,11.1-32.74c-.6-5.34-9.05-5.4-8.44,0,1.11,9.85-.49,19.54-8.2,26.39s-17.44,10.58-26.54,14.25c-9.78,3.95-19.73,7.47-29.33,11.86-8.36,3.82-16.22,8.48-24.32,12.8-1.72.92-3.88,2.33-5.89,2.47-.08,0-.36.02-.49-.1-1.13-1.02-1.42-2.53-1.59-4-.78-7.03,2.47-16.31,6.76-21.46,7.86-9.45,21.05-15.01,32.24-19.65,20.38-8.46,41.71-12.18,62.71-18.49,5.19-1.56,2.98-9.71-2.24-8.14Z"/>
    </g>
    <g>
      <path class="cls-7" d="M350.16,504.2c16.67,4.55,36.75,13.08,37.59,30.34.37,7.48-3.12,15.85,1.19,21.97,7.85,11.14,31.02.69,36.54,13.15-3.51,10.58-17.07,13.12-28.19,13.89-10.84.75-21.68,1.5-32.53,2.25-6.75.47-14.28.68-19.38-3.76-4.91-4.27-5.88-11.77-4.09-18.03s5.86-11.57,9.83-16.72c-6.74-12.12-13.49-24.24-20.23-36.36"/>
      <path d="M348.57,509.99c9.44,2.62,19.79,5.93,27.08,12.81,3.22,3.04,5.64,6.78,6.08,11.28.57,5.72-1.41,11.38-.79,17.12,1.15,10.67,9.55,15.71,19.39,16.87,5.53.65,17-1.34,19.98,4.63l-.6-4.62c-2.53,6.68-11.77,8.3-17.94,9.08-10.33,1.3-20.87,1.54-31.25,2.26-6.75.47-19.71,3.3-23.21-4.74-3.77-8.66,4.14-18.01,9.01-24.35,1.28-1.67.95-4.36,0-6.06-6.74-12.12-13.49-24.24-20.23-36.36-3.76-6.75-14.12-.7-10.36,6.06,6.74,12.12,13.49,24.24,20.23,36.36v-6.06c-6.12,7.95-12.22,16.89-11.4,27.43.74,9.51,6.72,17.31,16.19,19.47,10.58,2.41,22.49.05,33.16-.68,9.74-.67,20.06-.6,29.47-3.54,7.47-2.33,15.96-7.44,17.9-15.68,1.78-7.59-8.06-12.73-14.03-13.8-6.6-1.18-14.36.26-20.61-2.35-3.33-1.39-3.93-4.16-3.83-7.57.15-5.07,1.35-9.98.76-15.07-2.39-20.36-24.58-29.28-41.79-34.05-7.45-2.07-10.63,9.51-3.19,11.57h0Z"/>
    </g>
    <rect class="cls-3" x="244.56" y="76.38" width="35.29" height="76.1" transform="translate(524.4 228.85) rotate(-180)"/>
    <path class="cls-4" d="M443.55,151.33s.04.03.04.03c2.1,1.75,2.51,4.6,2.66,5.77,2.16,16.71,0,24.17,0,30.46,0,4.68-3.79,8.47-8.47,8.47h-6.47c-4.81,0-8.62,3.93-8.46,8.74.46,13.82,1.09,32.74,1.85,55,6.39,186.57,7.83,198.57-2.14,215.21-50.84,84.82-271.93,79.59-315.79,0-7-12.7-6.95-22.7-4.79-107.12.84-32.82,2.13-82.01,3.86-142.83.19-4.98.39-9.96.58-14.94.19-4.8-3.66-8.8-8.46-8.8h-24.44c-.52,0-.93-.44-.89-.96.23-13.3.46-26.61.69-39.91.07-4.02,3.26-7.29,7.28-7.44,50.12-1.95,358.81-5.07,362.95-1.68Z"/>
    <g>
      <g>
        <g>
          <path class="cls-6" d="M260.72,439.76c2.6,23.54,13.79,46.91,33.62,61.06,19.84,14.15,48.8,17.3,69.59,4.46,18.53-11.44,27.76-32.88,30.98-53.75,4.46-28.85-.57-58.63-11.79-85.74-11.22-27.11-28.47-51.68-48.42-73.72"/>
          <path class="cls-6" d="M257.63,439.76c2.76,24.61,14.22,48.44,34.51,63.26,19.42,14.18,47.21,18.03,69.06,7.29,22.05-10.84,33.25-35.19,36.75-58.41,4.3-28.48-.24-57.71-10.82-84.37-10.21-25.73-25.63-49.01-43.55-70.01-2.2-2.58-4.44-5.12-6.71-7.63-1.12-1.24-3.23-1.14-4.36,0-1.23,1.23-1.12,3.12,0,4.36,17.68,19.55,33.28,41.16,44.43,65.11s17.88,52.11,16.24,79.43c-1.34,22.34-8.29,47.03-26.72,61.03-18.17,13.81-43.89,13.19-63.49,2.72-20.59-11.01-33.38-32.45-37.91-54.84-.55-2.69-.97-5.34-1.26-7.93-.19-1.66-1.28-3.08-3.08-3.08-1.52,0-3.27,1.42-3.08,3.08h0Z"/>
        </g>
        <g>
          <path class="cls-6" d="M257.8,439.76c-2.6,23.54-13.79,46.91-33.62,61.06-19.84,14.15-48.8,17.3-69.59,4.46-18.53-11.44-27.76-32.88-30.98-53.75-5.66-36.65,4.08-66.2,11.79-85.74,13.14-33.27,32.83-57.66,49.29-74"/>
          <path class="cls-6" d="M254.71,439.76c-2.69,23.93-14.95,48.28-36.2,61.09s-48.43,13.59-67.32-1.71c-19.95-16.15-25.99-43.84-26.18-68.46s5.99-47.06,15.33-68.85c9.94-23.19,24.08-44.28,41.34-62.53,1.71-1.8,3.44-3.58,5.2-5.33,2.82-2.8-1.54-7.17-4.36-4.36-17.82,17.71-32.89,38.3-43.8,60.96-10.85,22.55-18.55,47.16-19.72,72.27-.67,14.28.58,28.98,4.53,42.75,3.52,12.27,9.38,24.13,18.33,33.36,9.18,9.47,21.2,15.23,34.23,16.94,12.95,1.7,26.23-.57,38.12-5.85,24.31-10.79,40.04-35.23,45.2-60.7.64-3.17,1.12-6.36,1.48-9.57.19-1.66-1.55-3.08-3.08-3.08-1.82,0-2.9,1.42-3.08,3.08h0Z"/>
        </g>
        <g>
          <path class="cls-6" d="M184.69,291.79c13.03-10.14,27.51-22.74,42.19-38.16,14.68-15.42,26.45-30.39,35.78-43.75-.04,4.35,1.23,8.51,3.19,12.44,2.39,4.81,5.53,9.08,7.3,11.17,4.86,5.73,28.36,28.55,61.54,58.58"/>
          <path class="cls-6" d="M186.87,293.97c11.39-8.87,22.28-18.36,32.6-28.44,11.33-11.08,21.97-22.86,31.82-35.28,4.86-6.13,9.55-12.4,14.04-18.81l-5.75-1.56c0,9.48,5.26,18.41,11.16,25.51,2.09,2.52,4.45,4.82,6.75,7.14,9.77,9.83,19.89,19.33,30.03,28.78,8.28,7.71,16.61,15.35,25,22.94,1.23,1.12,3.14,1.22,4.36,0,1.14-1.14,1.24-3.24,0-4.36-13.5-12.22-26.89-24.56-40.07-37.14-7.03-6.71-14.25-13.37-20.75-20.61-.58-.64-1.34-1.55-1.7-2.02-1.17-1.52-2.65-3.71-3.78-5.59-2.69-4.49-4.83-9.33-4.84-14.65,0-3.23-4.06-3.97-5.75-1.56-17.12,24.47-37.24,46.81-59.66,66.53-5.79,5.1-11.74,10.01-17.83,14.75-1.32,1.02-1.08,3.29,0,4.36,1.3,1.3,3.04,1.03,4.36,0h0Z"/>
        </g>
      </g>
      <path class="cls-1" d="M331.63,292.07h-140.89c-3.76,1.67-9.21,4.59-14.58,9.57-5.97,5.54-9.34,11.29-11.16,15.06v98.48c0,13.6,11.53,24.63,25.74,24.63h140.89c14.22,0,25.74-11.03,25.74-24.63v-98.48c-4.27-5.3-9.56-11.07-16.08-16.83-3.29-2.91-6.53-5.5-9.66-7.8Z"/>
    </g>
    <path class="cls-8" d="M382.3,505.22c-19.95,10.55-58.65,27.61-110.13,29.1-59.03,1.71-103.4-17.96-123.79-28.62,35.14,11.29,90.71,23.77,157.73,16.31,29.42-3.28,55.03-9.73,76.19-16.79Z"/>
    <path class="cls-8" d="M77.25,197.88c3.07.06,6.23.07,9.48,0,7.56-.16,14.69-.68,21.33-1.45,65.03-2.36,131.9-3.68,200.51-3.76,42.06-.05,83.44.37,124.13,1.2,3.18.03,6.37.05,9.55.08v-39.4c-121.45,0-242.9,0-364.35,0-.22,14.44-.44,28.89-.66,43.33Z"/>
    <path class="cls-2" d="M255.7,91.88S240.86-11.27,352.74,7.22c111.88,18.48-84.79,107.21-84.79,107.21l-12.25-22.54Z"/>
    <path class="cls-3" d="M271.15,103.37s16-79.74-81.35-79.74c-97.35,0,75.73,102.28,75.73,102.28l5.62-22.54Z"/>
    <path class="cls-3" d="M245.44,147.7h25.51c11.72-13.25,9.61-31.28,0-38.39-6.57-4.87-16.72-4.67-25.51,0v38.39Z"/>
    <path class="cls-8" d="M123.75,571.81c1.44-.52,4.04-1.41,7.37-2.18,28.84-6.72,49.72,9.57,57.37,1.92,1.96-1.96,3.86-6.3.46-17.47,3.96,2.93,6.31,6.07,7.64,8.18,1.92,3.06,6.47,10.32,3.59,16.73-1.14,2.54-3.01,3.97-3.8,4.56-5.12,3.84-11.75,2.9-15.44,2.44-23.36-2.91-22.57,1.64-35.37-2.45-5.16-1.65-13.19-4.91-21.82-11.73Z"/>
    <path class="cls-8" d="M420.98,569.49c-1.44-.52-4.04-1.41-7.37-2.18-28.84-6.72-49.72,9.57-57.37,1.92-1.96-1.96-3.86-6.3-.46-17.47-3.96,2.93-6.31,6.07-7.64,8.18-1.92,3.06-6.47,10.32-3.59,16.73,1.14,2.54,3.01,3.97,3.8,4.56,5.12,3.84,11.75,2.9,15.44,2.44,23.36-2.91,22.57,1.64,35.37-2.45,5.16-1.65,13.19-4.91,21.82-11.73Z"/>
  </g>
  <g id="Laag_1" data-name="Laag 1">
    <g id="billlen">
      <g id="bil_l" data-name="bil l">
        <ellipse class="cls-6" cx="212.03" cy="499.05" rx="63.88" ry="47.07"/>
        <path class="cls-8" d="M155.92,521.33c-.43-3.89-2.68-30.19,24.57-50.09,20.17-14.73,44.41-17.11,51.85-17.62-4.12-.86-32.49-6.42-56.47,6.28-15.88,8.41-21.39,20.04-23.1,23.83-8.13,18.15.76,33.73,3.14,37.6Z"/>
        <path class="cls-7" d="M272.87,489.57c-3.44,7.18-10.93,19.72-27.02,31.29-22.46,16.18-48.06,20.67-58.45,22.04,4.99,1.7,14.25,4.29,26.17,4.19,19.53-.17,33.11-7.39,37.68-10.07,4.54-2.82,15.49-10.37,20.61-23.13,4.35-10.84,2.33-20.02.99-24.33h.02Z"/>
        <path class="cls-5" d="M259.22,530.75c-25.58,19.69-68.02,19.74-92.49,1.7-25.62-18.89-24.07-52.06,5.73-70.34"/>
      </g>
      <g id="bil_r" data-name="bil r">
        <ellipse class="cls-6" cx="307.48" cy="497.91" rx="63.88" ry="47.07"/>
        <path class="cls-8" d="M275.29,537.01c-14.27-19.27-11.49-42.74,6.77-58.94,24.65-21.88,63.47-18.08,65.51-17.85-1.42-.8-30.36-16.75-64-6.99-1.96.57-33.17,10.08-39.4,34.37-4.83,18.89,7.51,38.66,31.1,49.42h.02Z"/>
        <path class="cls-7" d="M348.28,534.78c-4.62,1.13-34.98,8.17-65.22-4.88-27.14-11.69-34.92-31.24-36.4-35.21-.56,4.75-.85,13.24,3.26,22.5,6.75,15.13,20.77,22.13,25.8,24.36,3.32,1.37,10.04,3.8,19.26,4.76,1.63.17,8.5.84,17.95-.23,15.9-1.82,28.15-7.34,35.35-11.3Z"/>
        <path class="cls-5" d="M369.03,514.69c-30.69,27.75-68.49,37.13-94.98,23.32-3.28-1.71-31.44-16.93-30.81-42.89.36-14.96,10.1-25.62,13.86-29.34"/>
      </g>
    </g>
  </g>
</svg>