<?xml version="1.0" encoding="UTF-8"?>
<svg id="Laag_1" xmlns="http://www.w3.org/2000/svg" version="1.1" viewBox="0 0 530.7 780.5">
  <!-- Generator: Adobe Illustrator 29.1.0, SVG Export Plug-In . SVG Version: 2.1.0 Build 142)  -->
  <defs>
    <style>
      .st0 {
        stroke: #c17052;
        stroke-width: 2.1px;
      }

      .st0, .st1, .st2, .st3, .st4, .st5, .st6 {
        stroke-miterlimit: 10;
      }

      .st0, .st7 {
        fill: #c17052;
      }

      .st1 {
        stroke-width: 2.3px;
      }

      .st1, .st2, .st3, .st4, .st5, .st6 {
        stroke: #000;
      }

      .st2 {
        fill: #e06875;
        stroke-width: 3.4px;
      }

      .st8 {
        fill: #fffdfd;
      }

      .st3 {
        stroke-width: 1.4px;
      }

      .st3, .st4 {
        fill: none;
      }

      .st5 {
        stroke-width: 13px;
      }

      .st5, .st9 {
        fill: #ac5346;
      }

      .st10 {
        fill: #db9364;
      }

      .st6 {
        fill: #74a833;
        stroke-width: 8.8px;
      }
    </style>
  </defs>
  <g id="Laag_3">
    <g>
      <path class="st2" d="M245.8,146.4s-87.3-33.7-56.1-38.8,56.1,38.8,56.1,38.8h0Z"/>
      <g>
        <path class="st2" d="M243,146.8s-84.3,5.1-59.1-9.8c0,0,26.1-12.8,59.1,9.8h0Z"/>
        <path class="st2" d="M243.1,145.5l-13.7-40.8s-.7-25.9,17.2-8.2-3.4,49-3.4,49h-.1Z"/>
        <path class="st2" d="M245.2,154.8s-59.4-72.3-29.7-61.4,29.7,61.4,29.7,61.4Z"/>
        <path class="st2" d="M237.9,159.9l-43,2.2s-25.1-6.4-3.2-18.8,46.2,16.6,46.2,16.6Z"/>
        <path class="st2" d="M240.7,137.4s-84.3,5.1-59.1-9.8c0,0,26.1-12.8,59.1,9.8h0Z"/>
      </g>
    </g>
    <path class="st6" d="M246.8,182.3c-4.1-1.9-30.8-15.1-30.6-34.3,0-1.9.3-4,1-6.2,1.4-2,3.6-4.8,7-7.4,6.7-5.1,13.8-6.6,18.1-7.4,2.9-.6,12.5-2.5,19.8-.5,12.6,3.5,21.3,19.4,20.3,39l-35.6,16.8h0Z"/>
  </g>
  <g id="Laag_2">
    <path class="st6" d="M201.2,334.6c-6.3-5-43.4-35.4-43.8-83.1-.1-16.4,4.1-30,8.2-39.5,5.3-7.8,14.4-18.9,29-27.9,31.1-19,63.5-13.5,72.4-11.7,3.8-1.5,40.4-15.1,74.1,6.7,24.1,15.6,37,43.1,36.2,67.4-1.5,45.7-51.5,89.1-51.5,89.1h0s-43.5-.4-124.6-1.1h0Z"/>
  </g>
  <g id="Laag_4">
    <circle class="st1" cx="200.7" cy="207.8" r="1.4"/>
    <circle class="st1" cx="208.8" cy="262.9" r="1.5"/>
    <circle class="st1" cx="263.4" cy="209.3" r="1.5"/>
    <circle class="st1" cx="220.6" cy="230.6" r="1.4"/>
    <circle class="st1" cx="230.6" cy="190.6" r="1.4"/>
    <circle class="st1" cx="186.8" cy="227.6" r="1.4"/>
    <circle class="st1" cx="328" cy="217.7" r="1.5"/>
    <circle class="st1" cx="287.6" cy="220.2" r="1.5"/>
    <circle class="st1" cx="290.5" cy="192.1" r="1.5"/>
    <circle class="st1" cx="316.4" cy="242.2" r="1.5"/>
    <circle class="st1" cx="329.5" cy="278.7" r="1.5"/>
    <circle class="st1" cx="291.9" cy="256.1" r="1.5"/>
    <circle class="st1" cx="352" cy="233.4" r="1.5"/>
    <circle class="st1" cx="350.6" cy="257.5" r="1.5"/>
    <circle class="st1" cx="236.7" cy="274.1" r="1.5"/>
    <circle class="st1" cx="262" cy="245.1" r="1.5"/>
    <circle class="st1" cx="240.7" cy="162" r="1.4"/>
    <circle class="st1" cx="271.7" cy="275.5" r="1.5"/>
    <circle class="st1" cx="261.8" cy="153.1" r="1.5"/>
    <circle class="st1" cx="245.8" cy="149.3" r="1.4"/>
    <circle class="st1" cx="235.2" cy="142.8" r="1.4"/>
    <circle class="st1" cx="310.6" cy="314" r="1.5"/>
    <circle class="st1" cx="260.5" cy="311.1" r="1.5"/>
    <circle class="st1" cx="338.3" cy="296.4" r="1.5"/>
    <circle class="st1" cx="180.8" cy="284.8" r="1.5"/>
    <circle class="st1" cx="214.8" cy="299.4" r="1.5"/>
    <circle class="st1" cx="182.3" cy="257.5" r="1.5"/>
    <circle class="st1" cx="293.4" cy="293.5" r="1.5"/>
    <circle class="st1" cx="257.6" cy="141" r="1.5"/>
    <line class="st3" x1="377.3" y1="221" x2="386.1" y2="214.3"/>
    <line class="st3" x1="377.3" y1="226.1" x2="386.1" y2="219.4"/>
    <line class="st3" x1="156.5" y1="268.6" x2="145.6" y2="266.5"/>
    <line class="st3" x1="160.3" y1="265.2" x2="149.4" y2="263.1"/>
    <line class="st3" x1="163.9" y1="302.2" x2="174.9" y2="303.9"/>
    <line class="st3" x1="160.2" y1="305.8" x2="171.2" y2="307.4"/>
    <line class="st3" x1="179" y1="192.4" x2="171.8" y2="183.9"/>
    <line class="st3" x1="184.1" y1="192.1" x2="176.9" y2="183.6"/>
    <line class="st3" x1="303.9" y1="164.2" x2="303.9" y2="153.1"/>
    <line class="st3" x1="307.9" y1="167.3" x2="307.9" y2="156.2"/>
    <line class="st3" x1="341.7" y1="177.2" x2="350.6" y2="170.5"/>
    <line class="st3" x1="341.7" y1="182.3" x2="350.6" y2="175.6"/>
    <line class="st3" x1="366" y1="287.5" x2="376.2" y2="283"/>
    <line class="st3" x1="364.8" y1="292.5" x2="375" y2="288"/>
  </g>
  <g id="Laag_11">
    <g>
      <path class="st9" d="M109.1,511.7h0c-13.7,3.8-24,6.1-26.2,6.6-28.2,6.7-49.4,17.7-49.4,17.7-17.8,9.3-21.9,15.5-23.3,17.8-5.8,9.6-8.4,24.4-2.7,28.8,5.8,4.4,14.3-6.1,42.5-17.8,18-7.5,45-15.8,53.8-28.1,2.8-3.9,4.3-8.2,4.3-8.2,2-6.5,1.7-12.8,1.2-16.8h-.2Z"/>
      <path d="M108,507.6c-9.3,2.8-18.8,4.8-28.1,7.1-12.4,3-24.4,7.1-36.2,12-12.8,5.4-28.1,11.9-36.3,23.6-5,7.2-8.2,17.4-7.2,26.2.8,7,5.7,12.8,13.2,11,7.2-1.7,13.9-6.9,20.3-10.4,11.6-6.2,23.8-10.7,35.9-15.5,11.3-4.5,23.3-9.1,32.6-17.2,9.5-8.2,12.5-20.6,11.1-32.7-.6-5.3-9.1-5.4-8.4,0,1.1,9.8-.5,19.5-8.2,26.4-7.4,6.6-17.4,10.6-26.5,14.2-9.8,4-19.7,7.5-29.3,11.9-8.4,3.8-16.2,8.5-24.3,12.8-1.7.9-3.9,2.3-5.9,2.5h-.5c-1.1-1-1.4-2.5-1.6-4-.8-7,2.5-16.3,6.8-21.5,7.9-9.5,21-15,32.2-19.7,20.4-8.5,41.7-12.2,62.7-18.5,5.2-1.6,3-9.7-2.2-8.1h-.1Z"/>
    </g>
    <g>
      <path class="st9" d="M336.4,692.5c16.7,4.5,36.8,13.1,37.6,30.3.4,7.5-3.1,15.8,1.2,22,7.9,11.1,31,.7,36.5,13.2-3.5,10.6-17.1,13.1-28.2,13.9-10.8.8-21.7,1.5-32.5,2.2-6.8.5-14.3.7-19.4-3.8-4.9-4.3-5.9-11.8-4.1-18s5.9-11.6,9.8-16.7c-6.7-12.1-13.5-24.2-20.2-36.4"/>
      <path d="M334.8,698.3c9.4,2.6,19.8,5.9,27.1,12.8,3.2,3,5.6,6.8,6.1,11.3.6,5.7-1.4,11.4-.8,17.1,1.1,10.7,9.5,15.7,19.4,16.9,5.5.7,17-1.3,20,4.6l-.6-4.6c-2.5,6.7-11.8,8.3-17.9,9.1-10.3,1.3-20.9,1.5-31.2,2.3-6.8.5-19.7,3.3-23.2-4.7-3.8-8.7,4.1-18,9-24.3,1.3-1.7,1-4.4,0-6.1-6.7-12.1-13.5-24.2-20.2-36.4-3.8-6.8-14.1-.7-10.4,6.1,6.7,12.1,13.5,24.2,20.2,36.4v-6.1c-6.1,8-12.2,16.9-11.4,27.4.7,9.5,6.7,17.3,16.2,19.5,10.6,2.4,22.5,0,33.2-.7,9.7-.7,20.1-.6,29.5-3.5,7.5-2.3,16-7.4,17.9-15.7,1.8-7.6-8.1-12.7-14-13.8-6.6-1.2-14.4.3-20.6-2.3-3.3-1.4-3.9-4.2-3.8-7.6.1-5.1,1.4-10,.8-15.1-2.4-20.4-24.6-29.3-41.8-34-7.5-2.1-10.6,9.5-3.2,11.6h0l-.3-.2h0Z"/>
    </g>
    <g>
      <path class="st9" d="M421.4,511.7h.1c13.7,3.8,24,6.1,26.2,6.6,28.2,6.7,49.4,17.7,49.4,17.7,17.8,9.3,21.9,15.5,23.3,17.8,5.8,9.6,8.4,24.4,2.7,28.8-5.8,4.4-14.3-6.1-42.5-17.8-18-7.5-45-15.8-53.8-28.1-2.8-3.9-4.3-8.2-4.3-8.2-2-6.5-1.7-12.8-1.2-16.8h0Z"/>
      <path d="M420.2,515.7c18.9,5.7,38.2,9,56.7,16.1,12.4,4.8,26.1,10.4,35.9,19.6,4.4,4.1,6.9,9.6,8.4,15.7.8,3.2,2,9.1-.5,12-.5.6-1.4.3-3.2-.4-7.1-2.8-13.6-7.5-20.3-11-9.7-4.9-19.8-8.8-29.8-12.7-10.6-4.1-21.9-8.2-31.1-15.1-9.4-6.9-11.9-17.2-10.6-28.3.6-5.4-7.8-5.4-8.4,0-1.2,11,.9,22.1,8.7,30.4,7.3,7.8,17.9,12.4,27.6,16.4,11.7,4.9,23.7,9,35.1,14.4,8.6,4.1,16.6,9.6,25.3,13.3,5.5,2.3,11.4,2.1,14.6-3.6,5.1-9,.5-22.9-4.5-30.9-6.9-11.1-20.4-17.5-31.9-22.7-11.7-5.2-23.8-9.6-36.1-13-11.1-3-22.5-5.2-33.5-8.5-5.2-1.6-7.4,6.6-2.2,8.1h0l-.2.2h0Z"/>
    </g>
    <g>
      <path class="st9" d="M180.3,690.2c-16.7,4.5-36.8,13.1-37.6,30.3-.4,7.5,3.1,15.8-1.2,22-7.9,11.1-31,.7-36.5,13.2,3.5,10.6,17.1,13.1,28.2,13.9,10.8.8,21.7,1.5,32.5,2.2,6.8.5,14.3.7,19.4-3.8,4.9-4.3,5.9-11.8,4.1-18-1.8-6.3-5.9-11.6-9.8-16.7,6.7-12.1,13.5-24.2,20.2-36.4"/>
      <path d="M178.7,684.5c-15.5,4.3-34.4,11.4-40.4,27.9-1.5,4.1-1.8,8.5-1.4,12.8.3,3.9,2.3,10.4-.2,14-3.2,4.6-12.8,3.4-17.6,3.7-6.8.5-14.3,2-18.3,8.2-5,7.7,3.5,16.2,10.1,19.5,8.4,4.3,17.9,4.8,27.1,5.5,11.4.8,23,2.4,34.4,2.1,10.7-.3,20.7-5.4,23.1-16.7,2.5-11.9-4-22.1-10.9-31.1v6.1c6.7-12.1,13.5-24.2,20.2-36.4,3.8-6.8-6.6-12.8-10.4-6.1-6.7,12.1-13.5,24.2-20.2,36.4-.9,1.7-1.3,4.4,0,6.1,4.9,6.3,12.4,15.2,9.2,23.8-3.2,8.7-16.4,5.8-23.4,5.3-10.2-.7-20.6-1-30.7-2.2-6.3-.7-15.9-2.3-18.5-9.1l-.6,4.6c3-6,14.4-4,20-4.6,9.9-1.2,18.2-6.2,19.4-16.9.6-5.6-1.2-11.1-.8-16.7.3-4.7,2.8-8.6,6.1-11.7,7.3-6.9,17.6-10.2,27.1-12.8,7.4-2.1,4.3-13.6-3.2-11.6h-.1Z"/>
    </g>
    <path class="st5" d="M89.6,337.3c-1.2,0-2.4.2-3.6.2-.6,0-1.6,0-2,.5,0,.2,0,.3,0,.4.3,22.2.3,29.1.3,35.4s3.8,8.5,8.5,8.5h6.5c4.8,0,8.6,3.9,8.5,8.7-.5,13.8-1.1,32.7-1.8,55-6.4,186.6-7.8,198.6,2.1,215.2,50.8,84.8,271.9,79.6,315.8,0,7-12.7,7-22.7,4.8-107.1-.8-32.8-2.1-82-3.9-142.8-.2-5-.4-10-.6-14.9-.2-4.8,3.7-8.8,8.5-8.8h24.4c.5,0,.9-.4.9-1,0-14-.5-36-.5-36-.7-5.3-.8-7.5-2.7-9.7-4-4.6-11.2-4.4-13.5-4.4-22.4.5-348.3,1.2-351.5.9Z"/>
    <g>
      <g>
        <g>
          <path class="st7" d="M265.4,472.5c2.6-23.5,13.8-46.9,33.6-61.1,19.8-14.1,48.8-17.3,69.6-4.5,18.5,11.4,27.8,32.9,31,53.8,4.5,28.9-.6,58.6-11.8,85.7-11.2,27.1-28.5,51.7-48.4,73.7"/>
          <path class="st7" d="M268.5,472.5c2.5-22.4,13.3-45,32.1-58.4s43.7-16.6,63.5-6.1c20.4,10.8,29.9,33.9,32.8,55.9,3.6,27.3-1.3,55.2-11.6,80.6-9.9,24.3-24.7,46.5-41.7,66.3-2.1,2.5-4.2,4.9-6.4,7.3-1.1,1.2-1.2,3.1,0,4.4,1.1,1.1,3.2,1.2,4.4,0,18.4-20.3,34.7-42.9,46.1-68,11.9-26.1,18.5-55,16.2-83.7-1.9-24.2-10.2-49.9-30.8-64.5-20-14.2-47.8-13-68.8-1.6-21.8,11.8-35.8,34.9-40.5,58.7-.6,3-1.1,6.1-1.4,9.2-.2,1.7,1.5,3.1,3.1,3.1s2.9-1.4,3.1-3.1h-.1Z"/>
        </g>
        <g>
          <path class="st7" d="M262.5,472.5c-2.6-23.5-13.8-46.9-33.6-61.1-19.8-14.1-48.8-17.3-69.6-4.5-18.5,11.4-27.8,32.9-31,53.8-5.7,36.6,4.1,66.2,11.8,85.7,13.1,33.3,32.8,57.7,49.3,74"/>
          <path class="st7" d="M265.6,472.5c-2.9-26.1-15.8-51.9-38.6-66-21.7-13.5-52.3-15.2-73.3.6-22,16.6-29.4,45.5-30.1,71.8s5.6,49.6,15.3,72.7c10.2,24.4,25,46.6,43.1,65.8,1.7,1.8,3.4,3.6,5.2,5.3,2.8,2.8,7.2-1.6,4.4-4.4-17.1-17-31.4-36.4-42.1-58.1-10.4-21.2-18-44.6-19.5-68.2-.9-13.7,0-27.8,3.5-41.1,3-11.5,8-22.7,15.9-31.6s18.7-14.7,30.7-16.7,24.1,0,35,4.6c23.2,9.9,37.8,32.6,42.9,56.6.6,2.9,1.1,5.9,1.4,8.7.2,1.7,1.3,3.1,3.1,3.1s3.3-1.4,3.1-3.1h0Z"/>
        </g>
        <g>
          <path class="st7" d="M189.4,620.4c13,10.1,27.5,22.7,42.2,38.2,14.7,15.4,26.5,30.4,35.8,43.8,0-4.3,1.2-8.5,3.2-12.4,2.4-4.8,5.5-9.1,7.3-11.2,4.9-5.7,28.4-28.5,61.5-58.6"/>
          <path class="st7" d="M187.2,622.6c23.7,18.5,45.3,39.7,64,63.2,4.7,5.9,9.2,11.9,13.5,18.1,1.7,2.4,5.8,1.7,5.8-1.6s1.6-8.9,3.8-12.9c1.8-3.2,3.9-6.3,6-8.8,2.2-2.5,4.6-4.9,6.9-7.2,9.7-9.8,19.8-19.2,29.9-28.6,8.1-7.6,16.3-15.1,24.5-22.5,1.2-1.1,1.1-3.2,0-4.4-1.2-1.2-3.1-1.1-4.4,0-13.7,12.4-27.2,24.9-40.5,37.6-7,6.7-14.2,13.2-20.6,20.5-6.3,7.1-11.8,16.6-11.8,26.3,1.9-.5,3.8-1,5.8-1.6-8.3-11.8-17.2-23.2-26.7-34-10.5-11.9-21.8-23.2-33.7-33.7-5.9-5.2-11.9-10.1-18-14.9-1.3-1-3.1-1.3-4.4,0-1.1,1.1-1.3,3.3,0,4.4h0Z"/>
        </g>
      </g>
      <path class="st0" d="M336.3,620.1h-140.9c-3.8-1.7-9.2-4.6-14.6-9.6-6-5.5-9.3-11.3-11.2-15.1v-98.5c0-13.6,11.5-24.6,25.7-24.6h140.9c14.2,0,25.7,11,25.7,24.6v98.5c-4.3,5.3-9.6,11.1-16.1,16.8-3.3,2.9-6.5,5.5-9.7,7.8h.2Z"/>
    </g>
    <path class="st10" d="M148.1,691.3c19.9,10.5,58.6,27.6,110.1,29.1,59,1.7,103.4-18,123.8-28.6-35.1,11.3-90.7,23.8-157.7,16.3-29.4-3.3-55-9.7-76.2-16.8h0Z"/>
    <path class="st10" d="M453.2,383.9h-9.5c-7.6-.2-14.7-.7-21.3-1.5-65-2.4-131.9-3.7-200.5-3.8-42.1,0-83.4.4-124.1,1.2h-9.6v-39.4h364.3c.2,14.4.4,28.9.7,43.3h0v.2h0Z"/>
    <path class="st10" d="M406.7,757.8c-1.4-.5-4-1.4-7.4-2.2-28.8-6.7-49.7,9.6-57.4,1.9-2-2-3.9-6.3-.5-17.5-4,2.9-6.3,6.1-7.6,8.2-1.9,3.1-6.5,10.3-3.6,16.7,1.1,2.5,3,4,3.8,4.6,5.1,3.8,11.8,2.9,15.4,2.4,23.4-2.9,22.6,1.6,35.4-2.5,5.2-1.7,13.2-4.9,21.8-11.7h.1Z"/>
    <path class="st10" d="M109.5,755.5c1.4-.5,4-1.4,7.4-2.2,28.8-6.7,49.7,9.6,57.4,1.9,2-2,3.9-6.3.5-17.5,4,2.9,6.3,6.1,7.6,8.2,1.9,3.1,6.5,10.3,3.6,16.7-1.1,2.5-3,4-3.8,4.6-5.1,3.8-11.8,2.9-15.4,2.4-23.4-2.9-22.6,1.6-35.4-2.5-5.2-1.7-13.2-4.9-21.8-11.7h-.1Z"/>
    <path d="M314,451.6c-18.1,13.6-18.1,45.3,0,58.9,11.7,8.8,29.4,8.8,41,0,18.1-13.6,18.1-45.3,0-58.9-11.7-8.8-29.4-8.8-41,0h0Z"/>
    <path d="M206.4,595.2c13.6-30.4,103.8-30.4,117.4,0,2.9,6.5,2.1,13.7,0,20.2h-117.4c-2.1-6.5-2.9-13.7,0-20.2Z"/>
    <ellipse class="st8" cx="344.5" cy="483.4" rx="16.3" ry="13"/>
    <path d="M163.2,477.2c-18.1,2.9-18.1,9.5,0,12.4,11.7,1.8,29.4,1.8,41,0,18.1-2.9,18.1-9.5,0-12.4-11.7-1.8-29.4-1.8-41,0h0Z"/>
  </g>
  <line class="st4" x1="256.4" y1="475.8" x2="295.8" y2="464.8"/>
  <line class="st4" x1="159.3" y1="508.7" x2="121.3" y2="495.1"/>
  <line class="st4" x1="157.4" y1="451" x2="123.5" y2="415"/>
  <line class="st4" x1="310.6" y1="546.3" x2="325.7" y2="566.9"/>
  <line class="st4" x1="242.1" y1="517" x2="208.8" y2="523.1"/>
</svg>