<?xml version="1.0" encoding="UTF-8"?>
<svg xmlns="http://www.w3.org/2000/svg" xmlns:xlink="http://www.w3.org/1999/xlink" viewBox="0 0 590.4 594.47">
  <defs>
    <style>
      .cls-1 {
        stroke: #c17052;
        stroke-width: 2.06px;
      }

      .cls-1, .cls-2, .cls-3, .cls-4, .cls-5, .cls-6 {
        stroke-miterlimit: 10;
      }

      .cls-1, .cls-7 {
        fill: #c17052;
      }

      .cls-8 {
        fill: url(#Naamloos_verloop_18);
      }

      .cls-9 {
        fill: url(#Naamloos_verloop_22);
      }

      .cls-10 {
        fill: #fffdfd;
      }

      .cls-2 {
        fill: #a9db54;
      }

      .cls-2, .cls-3, .cls-4, .cls-5, .cls-6 {
        stroke: #000;
      }

      .cls-2, .cls-4 {
        stroke-width: 10px;
      }

      .cls-11 {
        fill: url(#Naamloos_verloop_22-2);
      }

      .cls-12 {
        fill: url(#Naamloos_verloop_18-2);
      }

      .cls-13 {
        fill: url(#Naamloos_verloop_18-3);
      }

      .cls-14 {
        fill: url(#Naamloos_verloop_18-4);
      }

      .cls-3 {
        stroke-width: .88px;
      }

      .cls-15 {
        fill: #fff;
      }

      .cls-4 {
        fill: #75a833;
      }

      .cls-5 {
        fill: #930000;
        stroke-width: 7.02px;
      }

      .cls-6 {
        stroke-width: 13px;
      }

      .cls-6, .cls-16 {
        fill: #ac5346;
      }

      .cls-17 {
        fill: #db9364;
      }
    </style>
    <radialGradient id="Naamloos_verloop_22" data-name="Naamloos verloop 22" cx="235.93" cy="433.79" fx="235.93" fy="433.79" r="8.25" gradientUnits="userSpaceOnUse">
      <stop offset="0" stop-color="#7f0000"/>
      <stop offset=".21" stop-color="#b70000"/>
      <stop offset="1" stop-color="#830000"/>
    </radialGradient>
    <radialGradient id="Naamloos_verloop_22-2" data-name="Naamloos verloop 22" cx="235.93" cy="433.86" fx="235.93" fy="433.86" r="8.67" xlink:href="#Naamloos_verloop_22"/>
    <radialGradient id="Naamloos_verloop_18" data-name="Naamloos verloop 18" cx="317.63" cy="417.5" fx="317.63" fy="417.5" r="8.25" gradientUnits="userSpaceOnUse">
      <stop offset=".27" stop-color="#7f0000"/>
      <stop offset="1" stop-color="#b70000"/>
    </radialGradient>
    <radialGradient id="Naamloos_verloop_18-2" data-name="Naamloos verloop 18" cx="317.63" cy="417.57" fx="317.63" fy="417.57" r="8.67" xlink:href="#Naamloos_verloop_18"/>
    <radialGradient id="Naamloos_verloop_18-3" data-name="Naamloos verloop 18" cx="237.96" cy="418.37" fx="237.96" fy="418.37" r="8.25" xlink:href="#Naamloos_verloop_18"/>
    <radialGradient id="Naamloos_verloop_18-4" data-name="Naamloos verloop 18" cx="237.96" cy="418.44" fx="237.96" fy="418.44" r="8.67" xlink:href="#Naamloos_verloop_18"/>
  </defs>
  <g id="Laag_2" data-name="Laag 2">
    <g>
      <path class="cls-3" d="M5.34,521.16s88.62-14.35,58.56-82.31c0,0-18.53-50.57,6.22-98.36,0,0,13.82-17.38,37.5-27.8l-21.86-33,377.12-10.44-18.22,37.94c12.96,16.64,21.79,31.46,27.56,42.18,17.55,32.64,28.92,68.72,32.27,88.35.54,3.14,2.34,14.5,6.88,29.26,1.84,5.98,3.58,10.74,4.66,13.58,2.64,4.75,5.78,7.67,8.6,9.52,14.87,9.81,41.1,3.82,65.45-14.78-4.31,4.8-11.24,11.29-21.35,16.5-18.42,9.49-36.1,8.94-43.78,8.25"/>
      <polygon class="cls-5" points="117.34 287.77 435.73 279.68 435.73 307.18 132.65 316.42 117.34 316.88 117.34 287.77"/>
      <path class="cls-5" d="M287.11,570.52c58.65-5.67,117.31-11.34,175.96-17,29.42-18.26,58.84-36.52,88.26-54.78-37.84,8.81-56.19,2.61-65.83-6.11-19.11-17.27-.77-41.52-13.23-95.99-10.22-44.71-36.55-89.45-36.55-89.46h0l-318.38,9.7c-34.4,42.2-43.1,77.78-44.09,103.52-1.44,37.16,12.83,62.74-2.98,82.56-13.92,17.44-42.35,19.43-64.93,18.19h0c-9.07-6.31,18.13,12.64,27.22,18.94,14.56,10.09,75.98,21.31,254.55,30.42Z"/>
    </g>
  </g>
  <g id="Laag_1" data-name="Laag 1">
    <g>
      <path class="cls-16" d="M119.99,325.64s-.1.03-.12.04c0,0,0,0,0,0-13.72,3.79-23.98,6.11-26.18,6.63-28.24,6.68-49.38,17.72-49.38,17.72-17.81,9.3-21.92,15.54-23.28,17.8-5.78,9.6-8.43,24.37-2.74,28.76,5.75,4.42,14.3-6.14,42.45-17.8,18.04-7.48,44.99-15.76,53.81-28.12,2.78-3.89,4.26-8.19,4.26-8.19,1.99-6.46,1.68-12.78,1.18-16.84Z"/>
      <path d="M118.87,321.57c-9.26,2.79-18.75,4.8-28.14,7.11-12.36,3.03-24.44,7.13-36.17,12.05-12.81,5.38-28.07,11.87-36.26,23.56-5.03,7.18-8.23,17.42-7.22,26.19.81,7,5.74,12.76,13.16,10.96,7.18-1.74,13.86-6.94,20.29-10.36,11.59-6.16,23.76-10.72,35.93-15.54,11.31-4.48,23.31-9.11,32.63-17.16,9.53-8.23,12.47-20.61,11.1-32.74-.6-5.34-9.05-5.4-8.44,0,1.11,9.85-.49,19.54-8.2,26.39-7.43,6.6-17.44,10.58-26.54,14.25-9.78,3.95-19.73,7.47-29.33,11.86-8.36,3.82-16.22,8.48-24.32,12.8-1.72.92-3.88,2.33-5.89,2.47-.08,0-.36.02-.49-.1-1.13-1.02-1.42-2.53-1.59-4-.78-7.03,2.47-16.31,6.76-21.46,7.86-9.45,21.05-15.01,32.24-19.65,20.38-8.46,41.71-12.18,62.71-18.49,5.19-1.56,2.98-9.71-2.24-8.14Z"/>
    </g>
    <g>
      <path class="cls-16" d="M347.31,506.45c16.67,4.55,36.75,13.08,37.59,30.34.37,7.48-3.12,15.85,1.19,21.97,7.85,11.14,31.02.69,36.54,13.15-3.51,10.58-17.07,13.12-28.19,13.89-10.84.75-21.68,1.5-32.53,2.25-6.75.47-14.28.68-19.38-3.76-4.91-4.27-5.88-11.77-4.09-18.03s5.86-11.57,9.83-16.72c-6.74-12.12-13.49-24.24-20.23-36.36"/>
      <path d="M345.71,512.23c9.44,2.62,19.79,5.93,27.08,12.81,3.22,3.04,5.64,6.78,6.08,11.28.57,5.72-1.41,11.38-.79,17.12,1.15,10.67,9.55,15.71,19.39,16.87,5.53.65,17-1.34,19.98,4.63l-.6-4.62c-2.53,6.68-11.77,8.3-17.94,9.08-10.33,1.3-20.87,1.54-31.25,2.26-6.75.47-19.71,3.3-23.21-4.74-3.77-8.66,4.14-18.01,9.01-24.35,1.28-1.67.95-4.36,0-6.06-6.74-12.12-13.49-24.24-20.23-36.36-3.76-6.75-14.12-.7-10.36,6.06,6.74,12.12,13.49,24.24,20.23,36.36v-6.06c-6.12,7.95-12.22,16.89-11.4,27.43.74,9.51,6.72,17.31,16.19,19.47,10.58,2.41,22.49.05,33.16-.68,9.74-.67,20.06-.6,29.47-3.54,7.47-2.33,15.96-7.44,17.9-15.68,1.78-7.59-8.06-12.73-14.03-13.8-6.6-1.18-14.36.26-20.61-2.35-3.33-1.39-3.93-4.16-3.83-7.57.15-5.07,1.35-9.98.76-15.07-2.39-20.36-24.58-29.28-41.79-34.05-7.45-2.07-10.63,9.51-3.19,11.57h0Z"/>
    </g>
    <g>
      <path class="cls-16" d="M432.26,325.64s.1.03.12.04c0,0,0,0,0,0,13.72,3.79,23.98,6.11,26.18,6.63,28.24,6.68,49.38,17.72,49.38,17.72,17.81,9.3,21.92,15.54,23.28,17.8,5.78,9.6,8.43,24.37,2.74,28.76-5.75,4.42-14.3-6.14-42.45-17.8-18.04-7.48-44.99-15.76-53.81-28.12-2.78-3.89-4.26-8.19-4.26-8.19-1.99-6.46-1.68-12.78-1.18-16.84Z"/>
      <path d="M431.14,329.71c18.89,5.68,38.18,9,56.67,16.09,12.38,4.75,26.12,10.43,35.89,19.6,4.38,4.11,6.91,9.63,8.36,15.71.77,3.23,2.01,9.11-.51,11.99-.52.6-1.39.3-3.18-.4-7.07-2.77-13.56-7.52-20.33-10.95-9.68-4.9-19.75-8.79-29.84-12.72-10.61-4.12-21.89-8.23-31.12-15.07-9.35-6.92-11.85-17.15-10.6-28.33.61-5.39-7.84-5.35-8.44,0-1.23,10.97.94,22.15,8.67,30.43,7.3,7.81,17.94,12.36,27.59,16.43,11.67,4.92,23.7,8.95,35.13,14.41,8.58,4.1,16.57,9.61,25.3,13.35,5.48,2.35,11.36,2.09,14.63-3.64,5.11-8.97.48-22.9-4.49-30.92-6.86-11.06-20.35-17.52-31.87-22.67s-23.76-9.59-36.11-12.95c-11.11-3.02-22.46-5.18-33.5-8.5-5.21-1.57-7.44,6.58-2.24,8.14Z"/>
    </g>
    <g>
      <path class="cls-16" d="M191.19,504.2c-16.67,4.55-36.75,13.08-37.59,30.34-.37,7.48,3.12,15.85-1.19,21.97-7.85,11.14-31.02.69-36.54,13.15,3.51,10.58,17.07,13.12,28.19,13.89,10.84.75,21.68,1.5,32.53,2.25,6.75.47,14.28.68,19.38-3.76,4.91-4.27,5.88-11.77,4.09-18.03-1.79-6.26-5.86-11.57-9.83-16.72,6.74-12.12,13.49-24.24,20.23-36.36"/>
      <path d="M189.6,498.42c-15.51,4.3-34.36,11.44-40.39,27.9-1.5,4.1-1.81,8.47-1.45,12.8.33,3.93,2.32,10.37-.2,13.95-3.25,4.62-12.82,3.36-17.61,3.71-6.85.5-14.29,1.95-18.3,8.16-4.97,7.68,3.5,16.15,10.1,19.5,8.38,4.26,17.9,4.82,27.1,5.45,11.36.78,23,2.41,34.38,2.13,10.74-.26,20.72-5.4,23.08-16.65,2.5-11.9-3.96-22.08-10.91-31.1v6.06c6.74-12.12,13.49-24.24,20.23-36.36,3.76-6.75-6.6-12.81-10.36-6.06-6.74,12.12-13.49,24.24-20.23,36.36-.95,1.7-1.28,4.39,0,6.06,4.85,6.3,12.39,15.16,9.19,23.78s-16.35,5.79-23.39,5.31c-10.21-.7-20.55-1.01-30.72-2.2-6.3-.74-15.89-2.3-18.48-9.14l-.6,4.62c2.99-5.98,14.45-3.97,19.98-4.63,9.85-1.17,18.21-6.18,19.39-16.87.62-5.6-1.23-11.08-.82-16.65.34-4.69,2.75-8.57,6.11-11.74,7.28-6.88,17.64-10.19,27.08-12.81,7.43-2.06,4.28-13.64-3.19-11.57h0Z"/>
    </g>
    <rect class="cls-4" x="261.51" y="76.38" width="35.29" height="76.1"/>
    <path class="cls-6" d="M97.81,151.33s-.04.03-.04.03c-2.1,1.75-2.51,4.6-2.66,5.77-2.16,16.71,0,24.17,0,30.46,0,4.68,3.79,8.47,8.47,8.47h6.47c4.81,0,8.62,3.93,8.46,8.74-.46,13.82-1.09,32.74-1.85,55-6.39,186.57-7.83,198.57,2.14,215.21,50.84,84.82,271.93,79.59,315.79,0,7-12.7,6.95-22.7,4.79-107.12-.84-32.82-2.13-82.01-3.86-142.83-.19-4.98-.39-9.96-.58-14.94-.19-4.8,3.66-8.8,8.46-8.8h24.44c.52,0,.93-.44.89-.96-.23-13.3-.46-26.61-.69-39.91-.07-4.02-3.26-7.29-7.28-7.44-50.12-1.95-358.81-5.07-362.95-1.68Z"/>
    <g>
      <g>
        <g>
          <path class="cls-7" d="M276.31,286.41c2.6-23.54,13.79-46.91,33.62-61.06,19.84-14.15,48.8-17.3,69.59-4.46,18.53,11.44,27.76,32.88,30.98,53.75,4.46,28.85-.57,58.63-11.79,85.74-11.22,27.11-28.47,51.68-48.42,73.72"/>
          <path class="cls-7" d="M279.39,286.41c2.51-22.35,13.32-45.01,32.1-58.39,18.02-12.85,43.73-16.61,63.53-6.15,20.4,10.78,29.91,33.93,32.84,55.86,3.64,27.3-1.31,55.18-11.6,80.56-9.86,24.31-24.73,46.47-41.73,66.34-2.11,2.46-4.25,4.89-6.42,7.29-1.12,1.24-1.22,3.14,0,4.36,1.13,1.13,3.24,1.24,4.36,0,18.4-20.35,34.73-42.9,46.13-67.95s18.45-54.96,16.16-83.69c-1.93-24.17-10.21-49.89-30.81-64.51-20-14.2-47.84-13-68.83-1.64s-35.75,34.85-40.49,58.73c-.6,3.04-1.06,6.11-1.4,9.2-.19,1.66,1.55,3.08,3.08,3.08,1.82,0,2.9-1.42,3.08-3.08h0Z"/>
        </g>
        <g>
          <path class="cls-7" d="M273.39,286.41c-2.6-23.54-13.79-46.91-33.62-61.06-19.84-14.15-48.8-17.3-69.59-4.46-18.53,11.44-27.76,32.88-30.98,53.75-5.66,36.65,4.08,66.2,11.79,85.74,13.14,33.27,32.83,57.66,49.29,74"/>
          <path class="cls-7" d="M276.47,286.41c-2.93-26.08-15.81-51.9-38.61-66.02-21.74-13.46-52.31-15.22-73.33.63-21.98,16.57-29.36,45.51-30.06,71.79s5.61,49.63,15.28,72.65c10.24,24.36,25.01,46.59,43.15,65.78,1.71,1.8,3.44,3.58,5.2,5.33,2.82,2.8,7.18-1.56,4.36-4.36-17.1-16.99-31.4-36.43-42.06-58.13-10.42-21.19-17.99-44.61-19.51-68.19-.88-13.72.02-27.76,3.47-41.1,2.97-11.49,7.97-22.72,15.92-31.56s18.71-14.73,30.72-16.66,24.15-.02,34.99,4.59c23.18,9.87,37.85,32.57,42.91,56.56.62,2.93,1.1,5.86,1.41,8.69.19,1.66,1.28,3.08,3.08,3.08,1.52,0,3.27-1.42,3.08-3.08h0Z"/>
        </g>
        <g>
          <path class="cls-7" d="M200.28,434.39c13.03,10.14,27.51,22.74,42.19,38.16,14.68,15.42,26.45,30.39,35.78,43.75-.04-4.35,1.23-8.51,3.19-12.44,2.39-4.81,5.53-9.08,7.3-11.17,4.86-5.73,28.36-28.55,61.54-58.58"/>
          <path class="cls-7" d="M198.1,436.57c23.72,18.47,45.28,39.69,64.01,63.21,4.68,5.88,9.17,11.92,13.48,18.08,1.68,2.41,5.75,1.68,5.75-1.56,0-4.62,1.62-8.91,3.83-12.91,1.77-3.19,3.85-6.33,5.95-8.76s4.56-4.87,6.91-7.23c9.74-9.76,19.79-19.21,29.88-28.6,8.13-7.56,16.31-15.06,24.54-22.51,1.24-1.12,1.14-3.23,0-4.36-1.23-1.23-3.12-1.12-4.36,0-13.67,12.37-27.22,24.87-40.55,37.6-6.97,6.66-14.19,13.25-20.57,20.49-6.27,7.12-11.8,16.56-11.81,26.28l5.75-1.56c-8.26-11.81-17.19-23.17-26.73-33.97-10.52-11.91-21.8-23.16-33.73-33.66-5.85-5.15-11.85-10.11-18-14.9-1.31-1.02-3.08-1.28-4.36,0-1.07,1.07-1.32,3.33,0,4.36h0Z"/>
        </g>
      </g>
      <path class="cls-1" d="M347.22,434.11h-140.89c-3.76-1.67-9.21-4.59-14.58-9.57-5.97-5.54-9.34-11.29-11.16-15.06v-98.48c0-13.6,11.53-24.63,25.74-24.63h140.89c14.22,0,25.74,11.03,25.74,24.63v98.48c-4.27,5.3-9.56,11.07-16.08,16.83-3.29,2.91-6.53,5.5-9.66,7.8Z"/>
    </g>
    <path class="cls-17" d="M159.05,505.22c19.95,10.55,58.65,27.61,110.13,29.1,59.03,1.71,103.4-17.96,123.79-28.62-35.14,11.29-90.71,23.77-157.73,16.31-29.42-3.28-55.03-9.73-76.19-16.79Z"/>
    <path class="cls-17" d="M464.1,197.88c-3.07.06-6.23.07-9.48,0-7.56-.16-14.69-.68-21.33-1.45-65.03-2.36-131.9-3.68-200.51-3.76-42.06-.05-83.44.37-124.13,1.2-3.18.03-6.37.05-9.55.08v-39.4h364.35c.22,14.44.44,28.89.66,43.33Z"/>
    <path class="cls-2" d="M285.66,91.88S300.49-11.27,188.61,7.22c-111.88,18.48,84.79,107.21,84.79,107.21l12.25-22.54Z"/>
    <path class="cls-4" d="M270.21,103.37s-16-79.74,81.35-79.74-75.73,102.28-75.73,102.28l-5.62-22.54Z"/>
    <path class="cls-4" d="M295.92,147.7h-25.51c-11.72-13.25-9.61-31.28,0-38.39,6.57-4.87,16.72-4.67,25.51,0v38.39Z"/>
    <path class="cls-17" d="M417.61,571.81c-1.44-.52-4.04-1.41-7.37-2.18-28.84-6.72-49.72,9.57-57.37,1.92-1.96-1.96-3.86-6.3-.46-17.47-3.96,2.93-6.31,6.07-7.64,8.18-1.92,3.06-6.47,10.32-3.59,16.73,1.14,2.54,3.01,3.97,3.8,4.56,5.12,3.84,11.75,2.9,15.44,2.44,23.36-2.91,22.57,1.64,35.37-2.45,5.16-1.65,13.19-4.91,21.82-11.73Z"/>
    <path class="cls-17" d="M120.37,569.49c1.44-.52,4.04-1.41,7.37-2.18,28.84-6.72,49.72,9.57,57.37,1.92,1.96-1.96,3.86-6.3.46-17.47,3.96,2.93,6.31,6.07,7.64,8.18,1.92,3.06,6.47,10.32,3.59,16.73-1.14,2.54-3.01,3.97-3.8,4.56-5.12,3.84-11.75,2.9-15.44,2.44-23.36-2.91-22.57,1.64-35.37-2.45-5.16-1.65-13.19-4.91-21.82-11.73Z"/>
    <path d="M324.93,265.56c-18.08,13.56-18.08,45.29,0,58.86,11.68,8.77,29.35,8.77,41.04,0,18.08-13.56,18.08-45.29,0-58.86-11.68-8.77-29.35-8.77-41.04,0Z"/>
    <path d="M334.71,406.44c-13.65,30.43-103.75,30.43-117.4,0-2.9-6.47-2.06-13.66,0-20.15h117.4c2.06,6.48,2.9,13.68,0,20.15Z"/>
    <ellipse class="cls-10" cx="355.43" cy="297.31" rx="16.27" ry="13.02"/>
    <path d="M181.26,265.56c-18.08,13.56-18.08,45.29,0,58.86,11.68,8.77,29.35,8.77,41.04,0,18.08-13.56,18.08-45.29,0-58.86-11.68-8.77-29.35-8.77-41.04,0Z"/>
    <ellipse class="cls-10" cx="211.76" cy="297.31" rx="16.27" ry="13.02"/>
  </g>
  <g id="Laag_3" data-name="Laag 3">
    <g>
      <path class="cls-9" d="M232.31,424.77c-.65,4.54-.97,9.12-.96,13.7,0,1.86.16,3.95,1.54,5.19,1.95,1.76,5.35.63,6.67-1.63s1.06-5.12.37-7.65c-1.16-4.26-3.44-8.2-6.55-11.33"/>
      <path class="cls-11" d="M230.87,424.37c-.59,4.21-.95,8.44-1.01,12.69-.04,3.16.01,7.22,3.48,8.61,2.74,1.1,6.06-.42,7.52-2.88,1.9-3.2,1.14-7.27-.04-10.58-1.36-3.83-3.53-7.31-6.38-10.22-1.35-1.38-3.47.74-2.12,2.12,1.98,2.02,3.59,4.34,4.79,6.9s2.18,5.42,1.84,8.15c-.25,2.02-1.9,4.34-4.23,3.81s-1.89-4.57-1.86-6.32c.07-3.84.36-7.68.9-11.49.11-.81-.2-1.6-1.05-1.85-.7-.2-1.73.25-1.85,1.05h0Z"/>
    </g>
    <polygon class="cls-15" points="227.76 386.43 233.9 411.69 243.96 386.43 227.76 386.43"/>
    <polyline class="cls-15" points="325.73 386.43 309.52 386.43 315.67 411.69"/>
    <g>
      <path class="cls-8" d="M314.01,408.48c-.65,4.54-.97,9.12-.96,13.7,0,1.86.16,3.95,1.54,5.19,1.95,1.76,5.35.63,6.67-1.63,1.32-2.26,1.06-5.12.37-7.65-1.16-4.26-3.44-8.2-6.55-11.33"/>
      <path class="cls-12" d="M312.57,408.08c-.59,4.21-.95,8.44-1.01,12.69-.04,3.16.01,7.22,3.48,8.61,2.74,1.1,6.06-.42,7.52-2.88,1.9-3.2,1.14-7.27-.04-10.58-1.36-3.83-3.53-7.31-6.38-10.22-1.35-1.38-3.47.74-2.12,2.12,1.98,2.02,3.59,4.34,4.79,6.9s2.18,5.42,1.84,8.15c-.25,2.02-1.9,4.34-4.23,3.81s-1.89-4.57-1.86-6.32c.07-3.84.36-7.68.9-11.49.11-.81-.2-1.6-1.05-1.85-.7-.2-1.73.25-1.85,1.05h0Z"/>
    </g>
    <g>
      <path class="cls-13" d="M234.34,409.35c-.65,4.54-.97,9.12-.96,13.7,0,1.86.16,3.95,1.54,5.19,1.95,1.76,5.35.63,6.67-1.63s1.06-5.12.37-7.65c-1.16-4.26-3.44-8.2-6.55-11.33"/>
      <path class="cls-14" d="M232.9,408.95c-.59,4.21-.95,8.44-1.01,12.69-.04,3.16.01,7.22,3.48,8.61,2.74,1.1,6.06-.42,7.52-2.88,1.9-3.2,1.14-7.27-.04-10.58-1.36-3.83-3.53-7.31-6.38-10.22-1.35-1.38-3.47.74-2.12,2.12,1.98,2.02,3.59,4.34,4.79,6.9s2.18,5.42,1.84,8.15c-.25,2.02-1.9,4.34-4.23,3.81s-1.89-4.57-1.86-6.32c.07-3.84.36-7.68.9-11.49.11-.81-.2-1.6-1.05-1.85-.7-.2-1.73.25-1.85,1.05h0Z"/>
    </g>
    <path d="M313.62,409.18c1.93,0,1.93-3,0-3s-1.93,3,0,3h0Z"/>
  </g>
</svg>