<?xml version="1.0" encoding="UTF-8"?>
<svg id="Laag_1" xmlns="http://www.w3.org/2000/svg" version="1.1" viewBox="0 0 590.4 594.5">
  <!-- Generator: Adobe Illustrator 29.1.0, SVG Export Plug-In . SVG Version: 2.1.0 Build 142)  -->
  <defs>
    <style>
      .st0 {
        stroke: #c17052;
        stroke-width: 2.1px;
      }

      .st0, .st1, .st2, .st3, .st4, .st5 {
        stroke-miterlimit: 10;
      }

      .st0, .st6 {
        fill: #c17052;
      }

      .st7 {
        fill: #fffdfd;
      }

      .st1 {
        fill: #a9db54;
      }

      .st1, .st2, .st3, .st4, .st5 {
        stroke: #000;
      }

      .st1, .st3 {
        stroke-width: 10px;
      }

      .st8, .st4 {
        fill: #930000;
      }

      .st2 {
        stroke-width: .9px;
      }

      .st9 {
        fill: #fff;
      }

      .st3 {
        fill: #75a833;
      }

      .st4 {
        stroke-width: 7px;
      }

      .st5 {
        stroke-width: 13px;
      }

      .st5, .st10 {
        fill: #ac5346;
      }

      .st11 {
        fill: #db9364;
      }
    </style>
  </defs>
  <g id="Laag_2">
    <g>
      <path class="st2" d="M5.3,521.2s88.6-14.4,58.6-82.3c0,0-18.5-50.6,6.2-98.4,0,0,13.8-17.4,37.5-27.8l-21.9-33,377.1-10.4-18.2,37.9c13,16.6,21.8,31.5,27.6,42.2,17.5,32.6,28.9,68.7,32.3,88.4.5,3.1,2.3,14.5,6.9,29.3,1.8,6,3.6,10.7,4.7,13.6,2.6,4.8,5.8,7.7,8.6,9.5,14.9,9.8,41.1,3.8,65.5-14.8-4.3,4.8-11.2,11.3-21.3,16.5-18.4,9.5-36.1,8.9-43.8,8.2"/>
      <polygon class="st4" points="117.3 287.8 435.7 279.7 435.7 307.2 132.6 316.4 117.3 316.9 117.3 287.8"/>
      <path class="st4" d="M287.1,570.5c58.6-5.7,117.3-11.3,176-17,29.4-18.3,58.8-36.5,88.3-54.8-37.8,8.8-56.2,2.6-65.8-6.1-19.1-17.3-.8-41.5-13.2-96-10.2-44.7-36.5-89.4-36.5-89.5h0l-318.4,9.7c-34.4,42.2-43.1,77.8-44.1,103.5-1.4,37.2,12.8,62.7-3,82.6-13.9,17.4-42.3,19.4-64.9,18.2h0c-9.1-6.3,18.1,12.6,27.2,18.9,14.6,10.1,76,21.3,254.5,30.4h-.1Z"/>
    </g>
  </g>
  <g id="Laag_11">
    <g>
      <path class="st10" d="M120,325.6h0c-13.7,3.8-24,6.1-26.2,6.6-28.2,6.7-49.4,17.7-49.4,17.7-17.8,9.3-21.9,15.5-23.3,17.8-5.8,9.6-8.4,24.4-2.7,28.8,5.8,4.4,14.3-6.1,42.5-17.8,18-7.5,45-15.8,53.8-28.1,2.8-3.9,4.3-8.2,4.3-8.2,2-6.5,1.7-12.8,1.2-16.8h0Z"/>
      <path d="M118.9,321.6c-9.3,2.8-18.8,4.8-28.1,7.1-12.4,3-24.4,7.1-36.2,12-12.8,5.4-28.1,11.9-36.3,23.6-5,7.2-8.2,17.4-7.2,26.2.8,7,5.7,12.8,13.2,11,7.2-1.7,13.9-6.9,20.3-10.4,11.6-6.2,23.8-10.7,35.9-15.5,11.3-4.5,23.3-9.1,32.6-17.2,9.5-8.2,12.5-20.6,11.1-32.7-.6-5.3-9.1-5.4-8.4,0,1.1,9.9-.5,19.5-8.2,26.4-7.4,6.6-17.4,10.6-26.5,14.2-9.8,4-19.7,7.5-29.3,11.9-8.4,3.8-16.2,8.5-24.3,12.8-1.7.9-3.9,2.3-5.9,2.5,0,0-.4,0-.5-.1-1.1-1-1.4-2.5-1.6-4-.8-7,2.5-16.3,6.8-21.5,7.9-9.5,21-15,32.2-19.6,20.4-8.5,41.7-12.2,62.7-18.5,5.2-1.6,3-9.7-2.2-8.1h0Z"/>
    </g>
    <g>
      <path class="st10" d="M347.3,506.5c16.7,4.5,36.8,13.1,37.6,30.3.4,7.5-3.1,15.8,1.2,22,7.9,11.1,31,.7,36.5,13.2-3.5,10.6-17.1,13.1-28.2,13.9-10.8.8-21.7,1.5-32.5,2.2-6.8.5-14.3.7-19.4-3.8-4.9-4.3-5.9-11.8-4.1-18s5.9-11.6,9.8-16.7c-6.7-12.1-13.5-24.2-20.2-36.4"/>
      <path d="M345.7,512.2c9.4,2.6,19.8,5.9,27.1,12.8,3.2,3,5.6,6.8,6.1,11.3.6,5.7-1.4,11.4-.8,17.1,1.1,10.7,9.5,15.7,19.4,16.9,5.5.7,17-1.3,20,4.6l-.6-4.6c-2.5,6.7-11.8,8.3-17.9,9.1-10.3,1.3-20.9,1.5-31.2,2.3-6.8.5-19.7,3.3-23.2-4.7-3.8-8.7,4.1-18,9-24.3,1.3-1.7,1-4.4,0-6.1-6.7-12.1-13.5-24.2-20.2-36.4-3.8-6.8-14.1-.7-10.4,6.1,6.7,12.1,13.5,24.2,20.2,36.4v-6.1c-6.1,8-12.2,16.9-11.4,27.4.7,9.5,6.7,17.3,16.2,19.5,10.6,2.4,22.5,0,33.2-.7,9.7-.7,20.1-.6,29.5-3.5,7.5-2.3,16-7.4,17.9-15.7,1.8-7.6-8.1-12.7-14-13.8-6.6-1.2-14.4.3-20.6-2.3-3.3-1.4-3.9-4.2-3.8-7.6.1-5.1,1.4-10,.8-15.1-2.4-20.4-24.6-29.3-41.8-34-7.5-2.1-10.6,9.5-3.2,11.6h0l-.3-.2Z"/>
    </g>
    <g>
      <path class="st10" d="M432.3,325.6h.1c13.7,3.8,24,6.1,26.2,6.6,28.2,6.7,49.4,17.7,49.4,17.7,17.8,9.3,21.9,15.5,23.3,17.8,5.8,9.6,8.4,24.4,2.7,28.8-5.8,4.4-14.3-6.1-42.5-17.8-18-7.5-45-15.8-53.8-28.1-2.8-3.9-4.3-8.2-4.3-8.2-2-6.5-1.7-12.8-1.2-16.8h0Z"/>
      <path d="M431.1,329.7c18.9,5.7,38.2,9,56.7,16.1,12.4,4.8,26.1,10.4,35.9,19.6,4.4,4.1,6.9,9.6,8.4,15.7.8,3.2,2,9.1-.5,12-.5.6-1.4.3-3.2-.4-7.1-2.8-13.6-7.5-20.3-11-9.7-4.9-19.8-8.8-29.8-12.7-10.6-4.1-21.9-8.2-31.1-15.1-9.4-6.9-11.9-17.1-10.6-28.3.6-5.4-7.8-5.4-8.4,0-1.2,11,.9,22.1,8.7,30.4,7.3,7.8,17.9,12.4,27.6,16.4,11.7,4.9,23.7,9,35.1,14.4,8.6,4.1,16.6,9.6,25.3,13.4,5.5,2.4,11.4,2.1,14.6-3.6,5.1-9,.5-22.9-4.5-30.9-6.9-11.1-20.3-17.5-31.9-22.7s-23.8-9.6-36.1-13c-11.1-3-22.5-5.2-33.5-8.5-5.2-1.6-7.4,6.6-2.2,8.1h-.2Z"/>
    </g>
    <g>
      <path class="st10" d="M191.2,504.2c-16.7,4.5-36.8,13.1-37.6,30.3-.4,7.5,3.1,15.8-1.2,22-7.9,11.1-31,.7-36.5,13.2,3.5,10.6,17.1,13.1,28.2,13.9,10.8.8,21.7,1.5,32.5,2.2,6.8.5,14.3.7,19.4-3.8,4.9-4.3,5.9-11.8,4.1-18-1.8-6.3-5.9-11.6-9.8-16.7,6.7-12.1,13.5-24.2,20.2-36.4"/>
      <path d="M189.6,498.4c-15.5,4.3-34.4,11.4-40.4,27.9-1.5,4.1-1.8,8.5-1.4,12.8.3,3.9,2.3,10.4-.2,14-3.2,4.6-12.8,3.4-17.6,3.7-6.8.5-14.3,2-18.3,8.2-5,7.7,3.5,16.2,10.1,19.5,8.4,4.3,17.9,4.8,27.1,5.5,11.4.8,23,2.4,34.4,2.1,10.7-.3,20.7-5.4,23.1-16.7,2.5-11.9-4-22.1-10.9-31.1v6.1c6.7-12.1,13.5-24.2,20.2-36.4,3.8-6.8-6.6-12.8-10.4-6.1-6.7,12.1-13.5,24.2-20.2,36.4-.9,1.7-1.3,4.4,0,6.1,4.9,6.3,12.4,15.2,9.2,23.8-3.2,8.7-16.4,5.8-23.4,5.3-10.2-.7-20.6-1-30.7-2.2-6.3-.7-15.9-2.3-18.5-9.1l-.6,4.6c3-6,14.5-4,20-4.6,9.9-1.2,18.2-6.2,19.4-16.9.6-5.6-1.2-11.1-.8-16.7.3-4.7,2.8-8.6,6.1-11.7,7.3-6.9,17.6-10.2,27.1-12.8,7.4-2.1,4.3-13.6-3.2-11.6h-.1Z"/>
    </g>
    <rect class="st3" x="261.5" y="76.4" width="35.3" height="76.1"/>
    <path class="st5" d="M101.8,151.2c-3.4,0-6.2,2.6-6.7,5.9s0,0,0,0c-2.2,16.7,0,24.2,0,30.5s3.8,8.5,8.5,8.5h6.5c4.8,0,8.6,3.9,8.5,8.7-.5,13.8-1.1,32.7-1.8,55-6.4,186.6-7.8,198.6,2.1,215.2,50.8,84.8,271.9,79.6,315.8,0,7-12.7,7-22.7,4.8-107.1-.8-32.8-2.1-82-3.9-142.8-.2-5-.4-10-.6-14.9-.2-4.8,3.7-8.8,8.5-8.8h24.4c.5,0,.9-.4.9-1-.2-13.3-.5-26.6-.7-39.9,0-2-3.3-4.7-5.5-6.2s-2.4-1.2-3.8-1.3c-62.2-2.3-126.3-3.6-192.2-3.8-56.3-.2-111.2.5-164.8,2Z"/>
    <g>
      <g>
        <g>
          <path class="st6" d="M276.3,286.4c2.6-23.5,13.8-46.9,33.6-61.1,19.8-14.1,48.8-17.3,69.6-4.5,18.5,11.4,27.8,32.9,31,53.8,4.5,28.9-.6,58.6-11.8,85.7s-28.5,51.7-48.4,73.7"/>
          <path class="st6" d="M279.4,286.4c2.5-22.4,13.3-45,32.1-58.4,18-12.9,43.7-16.6,63.5-6.1,20.4,10.8,29.9,33.9,32.8,55.9,3.6,27.3-1.3,55.2-11.6,80.6-9.9,24.3-24.7,46.5-41.7,66.3-2.1,2.5-4.2,4.9-6.4,7.3-1.1,1.2-1.2,3.1,0,4.4,1.1,1.1,3.2,1.2,4.4,0,18.4-20.4,34.7-42.9,46.1-67.9s18.5-55,16.2-83.7c-1.9-24.2-10.2-49.9-30.8-64.5-20-14.2-47.8-13-68.8-1.6-21.8,11.8-35.8,34.8-40.5,58.7-.6,3-1.1,6.1-1.4,9.2-.2,1.7,1.5,3.1,3.1,3.1s2.9-1.4,3.1-3.1h0v-.2Z"/>
        </g>
        <g>
          <path class="st6" d="M273.4,286.4c-2.6-23.5-13.8-46.9-33.6-61.1-19.8-14.1-48.8-17.3-69.6-4.5-18.5,11.4-27.8,32.9-31,53.8-5.7,36.6,4.1,66.2,11.8,85.7,13.1,33.3,32.8,57.7,49.3,74"/>
          <path class="st6" d="M276.5,286.4c-2.9-26.1-15.8-51.9-38.6-66-21.7-13.5-52.3-15.2-73.3.6-22,16.6-29.4,45.5-30.1,71.8-.7,25.1,5.6,49.6,15.3,72.6,10.2,24.4,25,46.6,43.1,65.8,1.7,1.8,3.4,3.6,5.2,5.3,2.8,2.8,7.2-1.6,4.4-4.4-17.1-17-31.4-36.4-42.1-58.1s-18-44.6-19.5-68.2c-.9-13.7,0-27.8,3.5-41.1,3-11.5,8-22.7,15.9-31.6s18.7-14.7,30.7-16.7,24.1,0,35,4.6c23.2,9.9,37.8,32.6,42.9,56.6.6,2.9,1.1,5.9,1.4,8.7.2,1.7,1.3,3.1,3.1,3.1s3.3-1.4,3.1-3.1h0Z"/>
        </g>
        <g>
          <path class="st6" d="M200.3,434.4c13,10.1,27.5,22.7,42.2,38.2,14.7,15.4,26.5,30.4,35.8,43.8,0-4.4,1.2-8.5,3.2-12.4,2.4-4.8,5.5-9.1,7.3-11.2,4.9-5.7,28.4-28.5,61.5-58.6"/>
          <path class="st6" d="M198.1,436.6c23.7,18.5,45.3,39.7,64,63.2,4.7,5.9,9.2,11.9,13.5,18.1,1.7,2.4,5.8,1.7,5.8-1.6s1.6-8.9,3.8-12.9c1.8-3.2,3.9-6.3,6-8.8,2.2-2.5,4.6-4.9,6.9-7.2,9.7-9.8,19.8-19.2,29.9-28.6,8.1-7.6,16.3-15.1,24.5-22.5,1.2-1.1,1.1-3.2,0-4.4-1.2-1.2-3.1-1.1-4.4,0-13.7,12.4-27.2,24.9-40.5,37.6-7,6.7-14.2,13.2-20.6,20.5-6.3,7.1-11.8,16.6-11.8,26.3,1.9-.5,3.8-1,5.8-1.6-8.3-11.8-17.2-23.2-26.7-34-10.5-11.9-21.8-23.2-33.7-33.7-5.9-5.1-11.9-10.1-18-14.9-1.3-1-3.1-1.3-4.4,0s-1.3,3.3,0,4.4h0Z"/>
        </g>
      </g>
      <path class="st0" d="M347.2,434.1h-140.9c-3.8-1.7-9.2-4.6-14.6-9.6-6-5.5-9.3-11.3-11.2-15.1v-98.5c0-13.6,11.5-24.6,25.7-24.6h140.9c14.2,0,25.7,11,25.7,24.6v98.5c-4.3,5.3-9.6,11.1-16.1,16.8-3.3,2.9-6.5,5.5-9.7,7.8h.2Z"/>
    </g>
    <path class="st11" d="M159.1,505.2c19.9,10.6,58.7,27.6,110.1,29.1,59,1.7,103.4-18,123.8-28.6-35.1,11.3-90.7,23.8-157.7,16.3-29.4-3.3-55-9.7-76.2-16.8Z"/>
    <path class="st11" d="M464.1,197.9h-9.5c-7.6-.2-14.7-.7-21.3-1.4-65-2.4-131.9-3.7-200.5-3.8-42.1,0-83.4.4-124.1,1.2h-9.6v-39.4h364.3c.2,14.4.4,28.9.7,43.3h0Z"/>
    <path class="st1" d="M285.7,91.9S300.5-11.3,188.6,7.2c-111.9,18.5,84.8,107.2,84.8,107.2l12.2-22.5h0Z"/>
    <path class="st3" d="M270.2,103.4s-16-79.7,81.4-79.7-75.7,102.3-75.7,102.3l-5.6-22.5h-.1Z"/>
    <path class="st3" d="M295.9,147.7h-25.5c-11.7-13.2-9.6-31.3,0-38.4,6.6-4.9,16.7-4.7,25.5,0v38.4Z"/>
    <path class="st11" d="M417.6,571.8c-1.4-.5-4-1.4-7.4-2.2-28.8-6.7-49.7,9.6-57.4,1.9-2-2-3.9-6.3-.5-17.5-4,2.9-6.3,6.1-7.6,8.2-1.9,3.1-6.5,10.3-3.6,16.7,1.1,2.5,3,4,3.8,4.6,5.1,3.8,11.8,2.9,15.4,2.4,23.4-2.9,22.6,1.6,35.4-2.5,5.2-1.7,13.2-4.9,21.8-11.7h.1Z"/>
    <path class="st11" d="M120.4,569.5c1.4-.5,4-1.4,7.4-2.2,28.8-6.7,49.7,9.6,57.4,1.9,2-2,3.9-6.3.5-17.5,4,2.9,6.3,6.1,7.6,8.2,1.9,3.1,6.5,10.3,3.6,16.7-1.1,2.5-3,4-3.8,4.6-5.1,3.8-11.8,2.9-15.4,2.4-23.4-2.9-22.6,1.6-35.4-2.5-5.2-1.7-13.2-4.9-21.8-11.7h-.1Z"/>
    <path d="M324.9,265.6c-18.1,13.6-18.1,45.3,0,58.9,11.7,8.8,29.4,8.8,41,0,18.1-13.6,18.1-45.3,0-58.9-11.7-8.8-29.4-8.8-41,0Z"/>
    <path d="M334.7,406.4c-13.6,30.4-103.8,30.4-117.4,0-2.9-6.5-2.1-13.7,0-20.1h117.4c2.1,6.5,2.9,13.7,0,20.1Z"/>
    <ellipse class="st7" cx="355.4" cy="297.3" rx="16.3" ry="13"/>
    <path d="M181.3,265.6c-18.1,13.6-18.1,45.3,0,58.9,11.7,8.8,29.4,8.8,41,0,18.1-13.6,18.1-45.3,0-58.9-11.7-8.8-29.4-8.8-41,0h0Z"/>
    <ellipse class="st7" cx="211.8" cy="297.3" rx="16.3" ry="13"/>
  </g>
  <g id="Laag_3">
    <g>
      <g>
        <path class="st8" d="M282.9,410.9s-7-12.6-24.3,7.3c0,0-6.6,34,21,33.5l3.2-40.7h0Z"/>
        <path class="st8" d="M275.7,410.6s7.2-12.5,24.1,7.8c0,0,6,34.1-21.7,33l-2.4-40.8h0Z"/>
      </g>
      <path d="M277.1,422.7c.9,5.5.4,11.2-1.2,16.6-.5,1.9,2.4,2.6,2.9.8,1.7-5.9,2.1-12.1,1.2-18.2-.1-.8-1.1-1.2-1.9-1-.9.2-1.2,1-1,1.9h0Z"/>
    </g>
    <path d="M293,406.9c-9.3.4-18.5.7-27.8,1l2.3-7.5,20.6-1.8c1.6,2.8,3.3,5.5,4.9,8.3h0Z"/>
    <polygon class="st9" points="227.8 386.4 233.9 411.7 244 386.4 227.8 386.4"/>
    <polyline class="st9" points="325.7 386.4 309.5 386.4 315.7 411.7"/>
  </g>
</svg>