<?xml version="1.0" encoding="UTF-8"?>
<svg xmlns="http://www.w3.org/2000/svg" viewBox="0 0 622.18 632.55">
  <defs>
    <style>
      .cls-1 {
        stroke: #c17052;
        stroke-width: 2.06px;
      }

      .cls-1, .cls-2, .cls-3, .cls-4, .cls-5, .cls-6, .cls-7, .cls-8, .cls-9 {
        stroke-miterlimit: 10;
      }

      .cls-1, .cls-10 {
        fill: #c17052;
      }

      .cls-2, .cls-11 {
        fill: #fff;
      }

      .cls-2, .cls-4, .cls-5, .cls-8, .cls-9 {
        stroke: #000;
      }

      .cls-2, .cls-6 {
        stroke-width: 3px;
      }

      .cls-12 {
        fill: #fffdfd;
      }

      .cls-3 {
        fill: #d00;
      }

      .cls-3, .cls-7 {
        stroke: #ffdc04;
      }

      .cls-3, .cls-7, .cls-8 {
        stroke-width: 4px;
      }

      .cls-4 {
        fill: #75a833;
        stroke-width: 10px;
      }

      .cls-5 {
        stroke-width: 13px;
      }

      .cls-5, .cls-13 {
        fill: #ac5346;
      }

      .cls-14 {
        fill: #ffdc04;
      }

      .cls-6 {
        fill: #ad0000;
        stroke: #ffdc00;
      }

      .cls-15 {
        fill: #db9364;
      }

      .cls-16, .cls-7, .cls-8, .cls-9 {
        fill: #ffdc00;
      }

      .cls-9 {
        stroke-width: 5px;
      }
    </style>
  </defs>
  <g id="Laag_1" data-name="Laag 1">
    <g>
      <path class="cls-13" d="M143.84,363.71s-.1.03-.12.04c0,0,0,0,0,0-13.72,3.79-23.98,6.11-26.18,6.63-28.24,6.68-49.38,17.72-49.38,17.72-17.81,9.3-21.92,15.54-23.28,17.8-5.78,9.6-8.43,24.37-2.74,28.76,5.75,4.42,14.3-6.14,42.45-17.8,18.04-7.48,44.99-15.76,53.81-28.12,2.78-3.89,4.26-8.19,4.26-8.19,1.99-6.46,1.68-12.78,1.18-16.84Z"/>
      <path d="M142.72,359.64c-9.26,2.79-18.75,4.8-28.14,7.11-12.36,3.03-24.44,7.13-36.17,12.05-12.81,5.38-28.07,11.87-36.26,23.56-5.03,7.18-8.23,17.42-7.22,26.19.81,7,5.74,12.76,13.16,10.96,7.18-1.74,13.86-6.94,20.29-10.36,11.59-6.16,23.76-10.72,35.93-15.54,11.31-4.48,23.31-9.11,32.63-17.16s12.47-20.61,11.1-32.74c-.6-5.34-9.05-5.4-8.44,0,1.11,9.85-.49,19.54-8.2,26.39s-17.44,10.58-26.54,14.25c-9.78,3.95-19.73,7.47-29.33,11.86-8.36,3.82-16.22,8.48-24.32,12.8-1.72.92-3.88,2.33-5.89,2.47-.08,0-.36.02-.49-.1-1.13-1.02-1.42-2.53-1.59-4-.78-7.03,2.47-16.31,6.76-21.46,7.86-9.45,21.05-15.01,32.24-19.65,20.38-8.46,41.71-12.18,62.71-18.49,5.19-1.56,2.98-9.71-2.24-8.14Z"/>
    </g>
    <g>
      <path class="cls-13" d="M371.16,544.52c16.67,4.55,36.75,13.08,37.59,30.34.37,7.48-3.12,15.85,1.19,21.97,7.85,11.14,31.02.69,36.54,13.15-3.51,10.58-17.07,13.12-28.19,13.89-10.84.75-21.68,1.5-32.53,2.25-6.75.47-14.28.68-19.38-3.76-4.91-4.27-5.88-11.77-4.09-18.03s5.86-11.57,9.83-16.72c-6.74-12.12-13.49-24.24-20.23-36.36"/>
      <path d="M369.56,550.31c9.44,2.62,19.79,5.93,27.08,12.81,3.22,3.04,5.64,6.78,6.08,11.28.57,5.72-1.41,11.38-.79,17.12,1.15,10.67,9.55,15.71,19.39,16.87,5.53.65,17-1.34,19.98,4.63l-.6-4.62c-2.53,6.68-11.77,8.3-17.94,9.08-10.33,1.3-20.87,1.54-31.25,2.26-6.75.47-19.71,3.3-23.21-4.74-3.77-8.66,4.14-18.01,9.01-24.35,1.28-1.67.95-4.36,0-6.06-6.74-12.12-13.49-24.24-20.23-36.36-3.76-6.75-14.12-.7-10.36,6.06,6.74,12.12,13.49,24.24,20.23,36.36v-6.06c-6.12,7.95-12.22,16.89-11.4,27.43.74,9.51,6.72,17.31,16.19,19.47,10.58,2.41,22.49.05,33.16-.68,9.74-.67,20.06-.6,29.47-3.54,7.47-2.33,15.96-7.44,17.9-15.68,1.78-7.59-8.06-12.73-14.03-13.8-6.6-1.18-14.36.26-20.61-2.35-3.33-1.39-3.93-4.16-3.83-7.57.15-5.07,1.35-9.98.76-15.07-2.39-20.36-24.58-29.28-41.79-34.05-7.45-2.07-10.63,9.51-3.19,11.57h0Z"/>
    </g>
    <g>
      <path class="cls-13" d="M456.11,363.71s.1.03.12.04c0,0,0,0,0,0,13.72,3.79,23.98,6.11,26.18,6.63,28.24,6.68,49.38,17.72,49.38,17.72,17.81,9.3,21.92,15.54,23.28,17.8,5.78,9.6,8.43,24.37,2.74,28.76-5.75,4.42-14.3-6.14-42.45-17.8-18.04-7.48-44.99-15.76-53.81-28.12-2.78-3.89-4.26-8.19-4.26-8.19-1.99-6.46-1.68-12.78-1.18-16.84Z"/>
      <path d="M454.99,367.78c18.89,5.68,38.18,9,56.67,16.09,12.38,4.75,26.12,10.43,35.89,19.6,4.38,4.11,6.91,9.63,8.36,15.71.77,3.23,2.01,9.11-.51,11.99-.52.6-1.39.3-3.18-.4-7.07-2.77-13.56-7.52-20.33-10.95-9.68-4.9-19.75-8.79-29.84-12.72-10.61-4.12-21.89-8.23-31.12-15.07-9.35-6.92-11.85-17.15-10.6-28.33.61-5.39-7.84-5.35-8.44,0-1.23,10.97.94,22.15,8.67,30.43,7.3,7.81,17.94,12.36,27.59,16.43,11.67,4.92,23.7,8.95,35.13,14.41,8.58,4.1,16.57,9.61,25.3,13.35,5.48,2.35,11.36,2.09,14.63-3.64,5.11-8.97.48-22.9-4.49-30.92-6.86-11.06-20.35-17.52-31.87-22.67s-23.76-9.59-36.11-12.95c-11.11-3.02-22.46-5.18-33.5-8.5-5.21-1.57-7.44,6.58-2.24,8.14Z"/>
    </g>
    <g>
      <path class="cls-13" d="M215.04,542.28c-16.67,4.55-36.75,13.08-37.59,30.34-.37,7.48,3.12,15.85-1.19,21.97-7.85,11.14-31.02.69-36.54,13.15,3.51,10.58,17.07,13.12,28.19,13.89,10.84.75,21.68,1.5,32.53,2.25,6.75.47,14.28.68,19.38-3.76,4.91-4.27,5.88-11.77,4.09-18.03s-5.86-11.57-9.83-16.72c6.74-12.12,13.49-24.24,20.23-36.36"/>
      <path d="M213.45,536.49c-15.51,4.3-34.36,11.44-40.39,27.9-1.5,4.1-1.81,8.47-1.45,12.8.33,3.93,2.32,10.37-.2,13.95-3.25,4.62-12.82,3.36-17.61,3.71-6.85.5-14.29,1.95-18.3,8.16-4.97,7.68,3.5,16.15,10.1,19.5,8.38,4.26,17.9,4.82,27.1,5.45,11.36.78,23,2.41,34.38,2.13,10.74-.26,20.72-5.4,23.08-16.65,2.5-11.9-3.96-22.08-10.91-31.1v6.06c6.74-12.12,13.49-24.24,20.23-36.36,3.76-6.75-6.6-12.81-10.36-6.06-6.74,12.12-13.49,24.24-20.23,36.36-.95,1.7-1.28,4.39,0,6.06,4.85,6.3,12.39,15.16,9.19,23.78-3.21,8.67-16.35,5.79-23.39,5.31-10.21-.7-20.55-1.01-30.72-2.2-6.3-.74-15.89-2.3-18.48-9.14l-.6,4.62c2.99-5.98,14.45-3.97,19.98-4.63,9.85-1.17,18.21-6.18,19.39-16.87.62-5.6-1.23-11.08-.82-16.65.34-4.69,2.75-8.57,6.11-11.74,7.28-6.88,17.64-10.19,27.08-12.81,7.43-2.06,4.28-13.64-3.19-11.57h0Z"/>
    </g>
    <rect class="cls-4" x="285.36" y="114.45" width="35.29" height="76.1"/>
    <path class="cls-5" d="M121.66,189.41s-.04.03-.04.03c-2.1,1.75-2.51,4.6-2.66,5.77-2.16,16.71,0,24.17,0,30.46,0,4.68,3.79,8.47,8.47,8.47h6.47c4.81,0,8.62,3.93,8.46,8.74-.46,13.82-1.09,32.74-1.85,55-6.39,186.57-7.83,198.57,2.14,215.21,50.84,84.82,271.93,79.59,315.79,0,7-12.7,6.95-22.7,4.79-107.12-.84-32.82-2.13-82.01-3.86-142.83-.19-4.98-.39-9.96-.58-14.94-.19-4.8,3.66-8.8,8.46-8.8h24.44c.52,0,.93-.44.89-.96-.23-13.3-.46-26.61-.69-39.91-.07-4.02-3.26-7.29-7.28-7.44-50.12-1.95-358.81-5.07-362.95-1.68Z"/>
    <g>
      <g>
        <g>
          <path class="cls-10" d="M300.16,324.49c2.6-23.54,13.79-46.91,33.62-61.06,19.84-14.15,48.8-17.3,69.59-4.46,18.53,11.44,27.76,32.88,30.98,53.75,4.46,28.85-.57,58.63-11.79,85.74-11.22,27.11-28.47,51.68-48.42,73.72"/>
          <path class="cls-10" d="M303.24,324.49c2.51-22.35,13.32-45.01,32.1-58.39,18.02-12.85,43.73-16.61,63.53-6.15,20.4,10.78,29.91,33.93,32.84,55.86,3.64,27.3-1.31,55.18-11.6,80.56-9.86,24.31-24.73,46.47-41.73,66.34-2.11,2.46-4.25,4.89-6.42,7.29-1.12,1.24-1.22,3.14,0,4.36,1.13,1.13,3.24,1.24,4.36,0,18.4-20.35,34.73-42.9,46.13-67.95,11.87-26.08,18.45-54.96,16.16-83.69-1.93-24.17-10.21-49.89-30.81-64.51s-47.84-13-68.83-1.64c-21.8,11.81-35.75,34.85-40.49,58.73-.6,3.04-1.06,6.11-1.4,9.2-.19,1.66,1.55,3.08,3.08,3.08,1.82,0,2.9-1.42,3.08-3.08h0Z"/>
        </g>
        <g>
          <path class="cls-10" d="M297.24,324.49c-2.6-23.54-13.79-46.91-33.62-61.06-19.84-14.15-48.8-17.3-69.59-4.46-18.53,11.44-27.76,32.88-30.98,53.75-5.66,36.65,4.08,66.2,11.79,85.74,13.14,33.27,32.83,57.66,49.29,74"/>
          <path class="cls-10" d="M300.32,324.49c-2.93-26.08-15.81-51.9-38.61-66.02s-52.31-15.22-73.33.63c-21.98,16.57-29.36,45.51-30.06,71.79-.66,25.11,5.61,49.63,15.28,72.65,10.24,24.36,25.01,46.59,43.15,65.78,1.71,1.8,3.44,3.58,5.2,5.33,2.82,2.8,7.18-1.56,4.36-4.36-17.1-16.99-31.4-36.43-42.06-58.13-10.42-21.19-17.99-44.61-19.51-68.19-.88-13.72.02-27.76,3.47-41.1,2.97-11.49,7.97-22.72,15.92-31.56s18.71-14.73,30.72-16.66c11.55-1.86,24.15-.02,34.99,4.59,23.18,9.87,37.85,32.57,42.91,56.56.62,2.93,1.1,5.86,1.41,8.69.19,1.66,1.28,3.08,3.08,3.08,1.52,0,3.27-1.42,3.08-3.08h0Z"/>
        </g>
        <g>
          <path class="cls-10" d="M224.13,472.46c13.03,10.14,27.51,22.74,42.19,38.16,14.68,15.42,26.45,30.39,35.78,43.75-.04-4.35,1.23-8.51,3.19-12.44,2.39-4.81,5.53-9.08,7.3-11.17,4.86-5.73,28.36-28.55,61.54-58.58"/>
          <path class="cls-10" d="M221.95,474.64c23.72,18.47,45.28,39.69,64.01,63.21,4.68,5.88,9.17,11.92,13.48,18.08,1.68,2.41,5.75,1.68,5.75-1.56,0-4.62,1.62-8.91,3.83-12.91,1.77-3.19,3.85-6.33,5.95-8.76s4.56-4.87,6.91-7.23c9.74-9.76,19.79-19.21,29.88-28.6,8.13-7.56,16.31-15.06,24.54-22.51,1.24-1.12,1.14-3.23,0-4.36-1.23-1.23-3.12-1.12-4.36,0-13.67,12.37-27.22,24.87-40.55,37.6-6.97,6.66-14.19,13.25-20.57,20.49-6.27,7.12-11.8,16.56-11.81,26.28,1.92-.52,3.83-1.04,5.75-1.56-8.26-11.81-17.19-23.17-26.73-33.97-10.52-11.91-21.8-23.16-33.73-33.66-5.85-5.15-11.85-10.11-18-14.9-1.31-1.02-3.08-1.28-4.36,0-1.07,1.07-1.32,3.33,0,4.36h0Z"/>
        </g>
      </g>
      <path class="cls-1" d="M371.07,472.18h-140.89c-3.76-1.67-9.21-4.59-14.58-9.57-5.97-5.54-9.34-11.29-11.16-15.06v-98.48c0-13.6,11.53-24.63,25.74-24.63h140.89c14.22,0,25.74,11.03,25.74,24.63v98.48c-4.27,5.3-9.56,11.07-16.08,16.83-3.29,2.91-6.53,5.5-9.66,7.8Z"/>
    </g>
    <path class="cls-15" d="M182.9,543.3c19.95,10.55,58.65,27.61,110.13,29.1,59.03,1.71,103.4-17.96,123.79-28.62-35.14,11.29-90.71,23.77-157.73,16.31-29.42-3.28-55.03-9.73-76.19-16.79Z"/>
    <path class="cls-15" d="M487.95,235.96c-3.07.06-6.23.07-9.48,0-7.56-.16-14.69-.68-21.33-1.45-65.03-2.36-131.9-3.68-200.51-3.76-42.06-.05-83.44.37-124.13,1.2-3.18.03-6.37.05-9.55.08v-39.4h364.35c.22,14.44.44,28.89.66,43.33Z"/>
    <path class="cls-15" d="M441.46,609.88c-1.44-.52-4.04-1.41-7.37-2.18-28.84-6.72-49.72,9.57-57.37,1.92-1.96-1.96-3.86-6.3-.46-17.47-3.96,2.93-6.31,6.07-7.64,8.18-1.92,3.06-6.47,10.32-3.59,16.73,1.14,2.54,3.01,3.97,3.8,4.56,5.12,3.84,11.75,2.9,15.44,2.44,23.36-2.91,22.57,1.64,35.37-2.45,5.16-1.65,13.19-4.91,21.82-11.73Z"/>
    <path class="cls-15" d="M144.22,607.56c1.44-.52,4.04-1.41,7.37-2.18,28.84-6.72,49.72,9.57,57.37,1.92,1.96-1.96,3.86-6.3.46-17.47,3.96,2.93,6.31,6.07,7.64,8.18,1.92,3.06,6.47,10.32,3.59,16.73-1.14,2.54-3.01,3.97-3.8,4.56-5.12,3.84-11.75,2.9-15.44,2.44-23.36-2.91-22.57,1.64-35.37-2.45-5.16-1.65-13.19-4.91-21.82-11.73Z"/>
    <path d="M348.78,303.63c-18.08,13.56-18.08,45.29,0,58.86,11.68,8.77,29.35,8.77,41.04,0,18.08-13.56,18.08-45.29,0-58.86-11.68-8.77-29.35-8.77-41.04,0Z"/>
    <path d="M358.56,444.52c-13.65,30.43-103.75,30.43-117.4,0-2.9-6.47-2.06-13.66,0-20.15h117.4c2.06,6.48,2.9,13.68,0,20.15Z"/>
    <ellipse class="cls-12" cx="379.28" cy="335.38" rx="16.27" ry="13.02"/>
    <path d="M205.11,303.63c-18.08,13.56-18.08,45.29,0,58.86,11.68,8.77,29.35,8.77,41.04,0,18.08-13.56,18.08-45.29,0-58.86-11.68-8.77-29.35-8.77-41.04,0Z"/>
    <ellipse class="cls-12" cx="235.61" cy="335.38" rx="16.27" ry="13.02"/>
  </g>
  <g id="Laag_2" data-name="Laag 2">
    <g>
      <path class="cls-11" d="M250.39,418.26c-8.16.08-10.4,38.59-10.5,40.38-.09,1.59-.09,3.94,1.26,6.11,1.14,1.82,3.05,2.36,4.36,3.94,3.78,4.57.38,12.87-2.75,18.27-2.34,4.03-4.56,8.46-5.18,13.54-.62,5.09.81,10.97,4.18,13.23,1.36.91,2.96,1.21,4.13,2.53,2.28,2.59,1.75,7.71.16,11.14-1.59,3.43-3.99,6.13-5.23,9.82-3.06,9.13,2.54,19.91,9.3,23.74,6.77,3.82,14.37,3.15,21.61,4.61,1.75.35,3.69,1.02,4.6,3.1.76,1.74.56,3.94.33,5.95-.81,7.05-1.69,14.25-.74,21.27s4.13,13.92,9.07,16.13c4.94,2.21,11.32-2.17,11.75-9.28,5.66,11.21,15.18,18.56,25.09,19.38,9.91.82,20-4.9,26.6-15.09-1.79-.82-3.58-1.65-5.36-2.47,5.03-1.17,9.79-4.49,13.43-9.4,1.05-1.41,2.07-3.32,1.69-5.26-.4-2.02-2.07-2.9-3.24-4.25-2.76-3.19-2.62-9.14-1.4-13.81,1.22-4.66,3.28-9,3.65-13.93.37-4.93-1.94-10.81-5.54-10.68,1.82-8.31,7.55-13.57,11.87-19.91,4.31-6.34,7.22-16.91,2.9-23.25-2.84-4.17-8.54-6.49-7.9-12.14.39-3.39,3.13-5.39,3.92-8.65,1.5-6.17-4.35-10.63-6.42-16.48-.71-1.99-.96-4.22-1.21-6.42-.68-5.99-1.21-10.31-1.28-11.31-.59-7.84-6.94-25.79-14.38-26.46-10.11-.92-14.41,30.8-32.45,35.68-6.15,1.67-17.8,1.29-22.61-.52-.3-.11-.73-.28-1.27-.5,0,0-4.84-2.01-9.1-5.41-6.89-5.5-16.36-33.68-23.35-33.61Z"/>
      <path d="M250.39,415.26c-5.48.16-7.67,6.91-8.92,11.23-1.83,6.34-2.72,12.98-3.47,19.52-.47,4.12-.86,8.26-1.09,12.4-.1,1.73-.02,3.53.48,5.2.46,1.54,1.24,3,2.36,4.17.83.86,2.05,1.56,2.85,2.24,1.41,1.2,1.68,2.59,1.56,4.65-.11,1.88-.86,4.27-1.66,6.21-.98,2.36-2.34,4.51-3.54,6.76-1.37,2.54-2.58,5.2-3.4,7.97-1.56,5.3-1.59,11.21.85,16.25,1.11,2.29,2.87,4.09,5.15,5.2.44.22.89.41,1.32.65.1.06.56.37.62.41.04.03.45.52.18.16.54.73.67,1.45.73,2.19.16,2.16-.4,4.41-1.31,6.19-1.24,2.44-2.9,4.63-4.07,7.11-4.42,9.37-1.12,21.29,6.79,27.82,4.49,3.71,10.12,4.99,15.78,5.69,2.62.32,5.26.5,7.87.93,1.06.17,2.24.32,3.23.76-.38-.17.09.08.13.1.66.41-.14-.28.41.3.26.28.32.39.47.88.35,1.17.15,2.54.02,3.73-.17,1.67-.38,3.33-.56,4.99-.34,3.14-.61,6.3-.65,9.46-.09,5.99.7,11.98,3.19,17.48,1.87,4.14,5.33,8.6,10.07,9.49s9.2-1.65,11.75-5.55c1.39-2.12,2.03-4.59,2.22-7.1l-5.59,1.51c4.3,8.42,11.14,15.67,20.05,19.15,8.31,3.24,17.67,1.81,25.09-2.96,4.75-3.05,8.64-7.19,11.73-11.9.83-1.26.35-3.45-1.08-4.1-1.79-.82-3.58-1.65-5.36-2.47l-.72,5.48c5.11-1.24,9.7-4.29,13.17-8.21,1.95-2.21,3.85-4.67,4.17-7.69s-1.32-5.26-3.44-7.3c-1.22-1.18-1.82-2.77-1.98-4.58-.21-2.39.03-4.57.61-6.85,1.37-5.41,3.97-10.63,3.83-16.33-.12-4.98-2.53-12.23-8.57-12.25l2.89,3.8c1.32-5.78,4.91-10.38,8.43-14.95s6.57-9.49,7.87-15.3.9-12.05-3.05-16.81c-1.52-1.84-3.44-3.29-5.01-5.09-.62-.71.28.44-.26-.32-.17-.24-.33-.48-.47-.73.03.05-.4-.78-.24-.42s-.17-.51-.16-.46c0-.03-.22-.97-.13-.38-.05-.31-.05-.64-.04-.96.01-.43.13-1.03.37-1.64.91-2.26,3.01-4.52,3.57-7.25.64-3.13-.08-6.11-1.49-8.92-1.25-2.49-2.98-4.7-4.27-7.17-1.36-2.6-1.66-5.66-2-8.66-.5-4.36-.8-8.81-1.54-13.14-.8-4.64-2.36-9.17-4.28-13.46-2.76-6.17-9.4-16.57-17.45-11.47-2.71,1.72-4.61,4.5-6.25,7.19-1.98,3.24-3.68,6.63-5.51,9.95-1,1.8-2.03,3.58-3.13,5.32-.53.83-1.07,1.65-1.64,2.46-.26.36-.52.72-.78,1.08-.04.06-.58.75-.18.24-.22.28-.44.55-.66.82-1.26,1.53-2.63,2.96-4.16,4.23,0,0-.64.51-.29.24s-.31.22-.3.22c-.41.29-.82.58-1.25.84-.35.22-.71.43-1.08.63-.22.12-.44.23-.67.34-.11.06-1.09.49-.42.21-.87.36-1.77.65-2.69.87-.47.11-.95.21-1.43.3-.9.16-.82.15-1.75.25-2.72.28-5.46.34-8.19.22s-4.55-.26-6.97-.81c-.92-.21-1.8-.48-2.68-.83-.14-.06-.59-.17-.72-.29.25.22.95.42.54.23-.34-.16-.69-.31-1.03-.47-2.5-1.19-5.01-2.59-7.18-4.31-.46-.37-.89-.77-1.29-1.21-.21-.23-.41-.47-.61-.71-.11-.13-.51-.68-.02-.02-.17-.23-.33-.45-.5-.68-2.33-3.27-4.19-6.88-6.05-10.42-2.03-3.86-4.01-7.76-6.23-11.51-1.84-3.1-3.87-6.39-6.81-8.56-1.19-.88-2.58-1.45-4.07-1.47-3.86-.05-3.86,5.95,0,6,.65,0-.79-.28.03.01.67.23-.61-.4.01,0,.24.15.49.32.74.46.39.21-.19-.14-.23-.18.16.15.34.29.51.44.51.47.98.99,1.42,1.53.13.16.26.33.39.49-.06-.07-.38-.53-.07-.09s.63.87.93,1.31c2.31,3.4,4.23,7.07,6.14,10.7s3.88,7.53,6.06,11.17c.99,1.66,2.06,3.26,3.26,4.77s2.64,2.68,4.25,3.81c3.42,2.41,7.48,4.69,11.6,5.63,5.09,1.16,10.55,1.32,15.73.89,4.54-.37,8.9-1.34,12.72-3.93,3.6-2.43,6.47-5.67,8.98-9.19,4.41-6.18,7.25-13.28,11.48-19.56.21-.31.42-.61.63-.91.1-.13.19-.26.29-.39.39-.55-.44.51,0,.01.46-.53.9-1.06,1.41-1.54.19-.18.41-.34.6-.53-.73.67,0,.01.25-.14.1-.06.53-.38.63-.34,0,0-.82.25-.21.09.13-.03.27-.08.39-.12.03,0,.39-.09.39-.09.04.2-.92.02-.26.05.22.01.46.01.68.01-.8,0-.3-.06-.04.02.18.06.38.13.56.17.48.12-.07-.02-.16-.07.24.14.5.26.73.4.19.12.36.24.54.37-.53-.36-.18-.16-.07-.05.35.33.72.64,1.05.99.3.31.58.63.85.96.04.05.57.74.19.24.22.3.44.6.64.91,2.67,3.94,4.16,7.73,5.49,12.19.59,1.98,1.1,4,1.43,6.04.03.19.06.39.09.59-.12-.81-.01-.06,0,.09.02.27.05.54.07.81.07.76.16,1.52.25,2.28.34,2.95.68,5.89,1.02,8.84.38,3.36.85,6.54,2.33,9.61,1.22,2.52,2.94,4.75,4.28,7.21,1.12,2.06,1.75,4.07.8,6.32s-2.89,4.31-3.47,6.87c-.63,2.83-.1,5.8,1.58,8.18,1.47,2.08,3.4,3.66,5.17,5.47.88.9,1.22,1.29,1.77,2.24.58,1.01.86,1.91,1.11,3.22.87,4.62-.95,10.41-3.45,14.7-2.86,4.91-6.96,8.9-9.82,13.84-1.51,2.61-2.68,5.44-3.35,8.38-.43,1.89.88,3.79,2.89,3.8.58,0,.07-.04-.05-.05.1,0,.37.08.48.14-.6-.32,0,.02.07.1.28.34-.3-.31.02.03.13.14.26.26.39.4.32.36-.21-.32.07.09.23.34.59.98.68,1.18.71,1.57.98,3.4.92,5.24-.18,4.85-2.52,9.36-3.66,14.01s-1.38,9.45.54,13.71c.44.98,1.02,1.85,1.73,2.67.65.76,1.51,1.33,2.13,2.12.19.24.38.66.27,1.26-.16.94-.81,1.82-1.37,2.56-2.91,3.85-6.98,6.83-11.59,7.95-2.36.57-3.09,4.39-.72,5.48,1.79.82,3.58,1.65,5.36,2.47l-1.08-4.1c-4.37,6.67-10.85,11.97-18.67,13.4-3.25.6-6.77.27-10.1-.83s-6.58-3.14-9.24-5.53c-3.56-3.21-6.33-7.07-8.5-11.32-.6-1.17-2.16-1.72-3.39-1.38-1.34.37-2.1,1.57-2.2,2.89-.05.66-.28,1.76-.61,2.62-.14.35-.95,1.71-1.17,1.96-.3.34-.62.66-.96.97-.09.08-.59.45-.2.17-.16.11-.32.22-.48.32s-.33.2-.5.28c.04-.02-.8.36-.41.2s-.47.14-.43.13c-.26.08-.53.14-.8.19.59-.12-.33.01-.55,0-.11,0-.96-.11-.28.01-.18-.03-.36-.07-.53-.11s-.35-.1-.52-.16c.53.17-.08-.03-.22-.11-.23-.13-.46-.25-.69-.39-.07-.04-.75-.51-.44-.28-1.69-1.29-2.71-2.91-3.67-4.83-2.32-4.63-2.83-9.97-2.78-15.07.03-3.08.29-6.15.61-9.21.3-2.87.95-5.87.7-8.76s-1.53-5.44-4.1-6.87c-2.21-1.23-4.89-1.46-7.35-1.78-5.05-.65-10.43-.71-15.15-2.84-7.29-3.3-12.05-12.91-9.61-20.8.74-2.38,2.19-4.45,3.47-6.56s2.46-4.47,2.96-6.97.62-4.98-.13-7.34c-.82-2.59-2.58-4.33-4.99-5.49-1.83-.88-2.71-1.66-3.45-3.44-.88-2.14-1.11-4.28-1.01-6.56.22-5.09,2.7-9.65,5.15-13.98s4.48-8.99,4.57-13.89c.04-2.33-.5-4.79-1.88-6.71-.82-1.14-1.8-1.97-2.93-2.79-.86-.62-1.6-1.11-2.05-2.18-.71-1.67-.45-3.6-.33-5.47.13-1.98.3-3.97.48-5.95.26-2.84.58-5.68.95-8.51.07-.5-.1.74,0-.06.02-.16.05-.33.07-.49.06-.41.12-.83.18-1.24.12-.79.24-1.58.37-2.37.25-1.52.52-3.05.83-4.56.57-2.81,1.24-5.62,2.21-8.32.09-.25.18-.49.28-.74.06-.15.13-.29.18-.44.13-.4-.32.69-.05.12.25-.52.48-1.04.76-1.54.22-.4.5-.76.73-1.15s-.52.54-.04.07c.16-.16.33-.33.49-.5.46-.48-.29.13-.1.07.07-.02.4-.2.43-.24-.06.11-.75.25-.18.11.63-.16-.85.05-.19.03,3.85-.12,3.87-6.12,0-6Z"/>
    </g>
    <g>
      <path class="cls-11" d="M236.13,417.9c1.42,7.23,5.5,13.19,10.41,15.24,4.92,2.05,10.51.1,14.29-4.96,1.15,6.83,6.55,10.73,11.28,9.74,4.73-1,8.73-5.77,11.75-11.22,1.88,6.41,6.45,10.9,11.19,10.99,4.74.09,9.39-4.24,11.37-10.58,1.85,5.81,5.41,10.81,9.73,11.58,4.32.76,9.08-3.94,9.28-10.35,2.14,2.99,3.03,7.43,4.85,10.85s5.57,5.57,7.61,2.43c2.41-3.73.97-12.5,4.45-12.95,0,8.62,7.7,14.81,12.63,10.17,4.93-4.64,4.33-17.52-.97-21.14-1.63-1.11-3.45-1.4-5.23-1.68-29.75-4.53-59.62-7.22-89.52-8.07-8.43-.24-18.48.95-22.69,11.71"/>
      <path d="M234.68,418.3c1.26,6.16,4.61,13.02,10.55,15.88,6.33,3.05,12.89-.01,16.89-5.25l-2.74-.36c1,5.5,5.3,11.11,11.38,10.99,6.71-.13,11.46-6.88,14.4-12.12l-2.74-.36c1.72,5.66,6.1,11.97,12.64,12.09s11.01-6.11,12.82-11.68h-2.89c1.72,5.26,5.47,12.48,11.86,12.75s9.86-6.56,10.1-11.92l-2.8.76c2.36,3.4,2.96,7.63,5.03,11.18,1.55,2.66,5.03,5.65,8.25,3.83,2.71-1.53,3.13-5.23,3.5-8,.18-1.36.31-2.74.64-4.07.22-.9.45-1.79,1.18-1.92l-1.9-1.45c.06,4.72,2.21,9.93,6.56,12.25,3.97,2.11,8.21.5,10.38-3.3,2.21-3.87,2.46-8.82,1.62-13.12-.41-2.08-1.16-4.19-2.43-5.9-1.52-2.06-3.68-3.23-6.17-3.74-3.61-.74-7.32-1.13-10.97-1.64s-7.14-.97-10.71-1.42c-7.36-.92-14.74-1.73-22.12-2.42-14.74-1.39-29.52-2.33-44.32-2.82-5.38-.18-10.92-.4-16.08,1.42-5.48,1.93-9.35,5.93-11.51,11.29-.72,1.79,2.18,2.57,2.89.8,1.65-4.1,4.7-7.38,8.85-8.99,3.67-1.42,7.64-1.7,11.53-1.64,13.1.2,26.22,1.06,39.28,2.12,13.34,1.08,26.65,2.53,39.91,4.35,3.27.45,6.54.92,9.81,1.41,2.44.37,5.16.62,6.86,2.62,2.39,2.8,2.83,7.16,2.53,10.68-.27,3.16-1.83,8.68-5.97,8.3-4.65-.42-6.9-6.28-6.95-10.24-.01-1.05-.94-1.61-1.9-1.45-2.35.41-3.13,3.02-3.48,5.04-.46,2.58-.4,5.49-1.49,7.91-1.58,3.49-4.71-.34-5.66-2.27-1.66-3.38-2.41-7.19-4.58-10.33-.84-1.22-2.73-.78-2.8.76-.17,3.69-2.74,9.43-7.31,8.91s-7.49-6.63-8.76-10.53c-.46-1.42-2.43-1.43-2.89,0-1.38,4.28-4.82,9.57-9.92,9.48s-8.44-5.58-9.74-9.89c-.37-1.21-2.09-1.51-2.74-.36-2.34,4.17-6.16,10.25-11.54,10.62-4.89.33-7.99-4.55-8.76-8.78-.26-1.42-2.05-1.26-2.74-.36-3.2,4.19-8.72,6.58-13.6,3.74s-7.3-8.47-8.35-13.66c-.39-1.89-3.28-1.09-2.89.8h0Z"/>
    </g>
    <path class="cls-2" d="M187.44,301.91c4.23,1.05,8.47-1.32,12.59-.09,3.37,1.01,6.25,3.6,9.43,5.07,3.42,1.58,7.12,2.39,10.86,1.51,4.16-.98,6.76-3.74,9.94-6.31,1.18-.96.03-.69,1.42-.92.71-.11,1.98.39,2.73.48,1.82.2,3.6.11,5.39-.27,3.8-.79,7.13-2.85,9.67-5.76,1.14-1.31,1.45-2.78,1.22-4.14,2.56-2.27,2.59-7.47-1.73-8.82-6.27-1.96-12.82-3.86-19.47-3.68-6.3.17-10.68,3.1-16.43,4.87-5.59,1.72-10.46-4.26-15.31-6.26-4.6-1.89-9.66-2.2-13.9.72-3.1,2.14-2.64,6.02-.66,8.1-.17.11-.33.22-.49.35-5.71,4.55-1.53,13.61,4.72,15.15ZM193.68,286.6c-1.2.2-2.39.47-3.59.8-.24-.25-.49-.49-.78-.69,1.38-.76,2.87-.65,4.36-.11Z"/>
    <path class="cls-2" d="M401.56,283c-.16-.13-.33-.24-.49-.35,1.99-2.08,2.45-5.96-.66-8.1-4.24-2.92-9.3-2.61-13.9-.72-4.85,2-9.72,7.98-15.31,6.26-5.75-1.77-10.13-4.7-16.43-4.87-6.64-.18-13.19,1.72-19.47,3.68-4.32,1.35-4.29,6.56-1.73,8.82-.23,1.36.08,2.83,1.22,4.14,2.53,2.91,5.87,4.97,9.67,5.76,1.79.37,3.58.47,5.39.27.75-.08,2.01-.59,2.73-.48,1.39.22.24-.04,1.42.92,3.18,2.57,5.78,5.33,9.94,6.31,3.73.88,7.44.07,10.86-1.51,3.18-1.47,6.06-4.07,9.43-5.07,4.12-1.23,8.35,1.14,12.59.09,6.25-1.55,10.43-10.61,4.72-15.15ZM394.95,282.96c-.28.21-.54.45-.78.69-1.19-.33-2.39-.6-3.59-.8,1.49-.54,2.98-.66,4.36.11Z"/>
    <path class="cls-6" d="M248.93,137.68c-5.25-7.7-19.09-30.26-15.5-58.97,4.52-36.14,34.82-67.18,76.26-77.15,5.27,1.81,12.73,4.85,20.9,9.95,7.03,4.39,26.99,17.22,38.34,42.93,3.83,8.67,11.61,26.29,6.85,48.47-3.82,17.81-13.79,29.56-18.84,34.76h-108.01Z"/>
    <path class="cls-3" d="M248.93,137.68s-27-76.82,29.46-107.75l30.69-18.19,28.23,20.01s49.1,46.31,19.64,105.93c-29.46,59.63-108.02,0-108.02,0Z"/>
    <polygon class="cls-3" points="244.5 137.68 231.77 182.01 379.13 181.48 366.4 137.68 260.88 137.68 244.5 137.68"/>
    <g>
      <path class="cls-7" d="M309.07,11.73c-2.88,4.45-5.6,9.19-8.09,14.25-22.5,45.72-14.73,93.73-7.23,121.5h22.42c9.43-27.32,20.98-76.11-.22-122.69-2.09-4.59-4.4-8.94-6.87-13.05Z"/>
      <path class="cls-7" d="M245.55,73.78l116.73.33c.32,7.5.63,15,.95,22.5-40.24-.77-80.49-1.54-120.73-2.31-.07-3.15.09-6.93.77-11.15.58-3.58,1.41-6.73,2.28-9.38Z"/>
    </g>
    <path class="cls-14" d="M370.23,150.85c-43.18.04-86.36.08-129.55.13,1.35-4.43,2.69-8.87,4.04-13.3h121.58c1.31,4.39,2.62,8.78,3.93,13.18Z"/>
    <g>
      <path class="cls-9" d="M534.82,200.31s-29.61-52.52,28.38-43.58c0,0,29.61.31,19.74,27.45-4.46,6.25-12.14,9.38-19.63,7.98-7.76-1.45-13.95-7.49-15.62-15.29,10.23,7.59,20.46,8.01,24.26,3.66,2.73-3.12,2.33-8.9-.15-12.44-5.52-7.88-23.58-7.88-31.42,1.14-8.25,9.49-2.61,26,5.22,34.62,12.43,13.68,32.7,10.05,37.34,9.22,5.85-1.05,25.11-5.62,33.31-23.37,6.16-13.33,2.38-26.11,1.11-30.42-5.2-17.6-18.88-26.64-22.48-28.94-25.9-16.56-56.48-4.48-64.47-1.33-9.48,3.74-17.98,7.1-23.93,15.95-12.68,18.88,7.36,55.33,7.36,55.33h20.98Z"/>
      <path class="cls-8" d="M513.3,626.36h22.21c3.28-244.51,4.04-346.82,3.36-364.37-.04-1.1-.33-8-.46-17.41-.22-16.07.14-29.92.63-40.86-2.2-2.74-4.39-5.47-6.59-8.21-6.39.49-12.77.97-19.16,1.46v429.39Z"/>
      <path class="cls-16" d="M513.75,194.63c1.42,2.39,2.45,4.92,3.11,7.62l2.74-1.16c-1.75-2.35-1.84-5.29-1.91-8.1l-2.8.76c1.58,2.78,3.16,5.56,4.74,8.34.96,1.68,3.5.19,2.59-1.51-1.18-2.19-1.89-4.6-2.08-7.08l-2.8.76c1.55,2.92,3.09,5.84,4.64,8.77.91,1.71,3.47.2,2.59-1.51-1.33-2.61-2.11-5.46-2.28-8.38l-2.8.76c1.8,2.89,3.41,5.88,4.83,8.98.7,1.53,3.36.43,2.74-1.16-1.2-3.07-1.97-6.28-2.2-9.57l-2.8.76c1.74,2.71,3.3,5.53,4.68,8.44.72,1.51,3.41.42,2.74-1.16-1.06-2.52-1.9-5.13-2.49-7.8l-2.51,1.46c1.03,1.33,1.52,3.05,2.21,4.56.74,1.62,1.75,3.1,3.33,4.01,1.06.6,2.16-.18,2.26-1.3.14-1.53-.87-2.9-1.57-4.18-.76-1.37-1.52-2.75-2.27-4.12l-2.59,1.51c1.82,2.8,3.64,5.6,5.46,8.4,1.05,1.61,3.65.11,2.59-1.51-1.82-2.8-3.64-5.6-5.46-8.4-1.05-1.61-3.53-.19-2.59,1.51.65,1.18,1.3,2.36,1.95,3.53.32.59.65,1.18.97,1.77.27.49.56.91.51,1.49l2.26-1.3c-1.31-.75-1.94-2.16-2.51-3.5-.7-1.63-1.33-3.19-2.43-4.6-.99-1.27-2.8.14-2.51,1.46.59,2.67,1.43,5.28,2.49,7.8l2.74-1.16c-1.38-2.91-2.94-5.72-4.68-8.44-.75-1.17-2.91-.81-2.8.76.25,3.56,1,7.05,2.31,10.37l2.74-1.16c-1.42-3.09-3.03-6.09-4.83-8.98-.75-1.2-2.89-.79-2.8.76.2,3.47,1.11,6.8,2.69,9.9l2.59-1.51c-1.55-2.92-3.09-5.84-4.64-8.77-.68-1.28-2.91-.73-2.8.76.22,3.03,1.05,5.92,2.49,8.6l2.59-1.51c-1.58-2.78-3.16-5.56-4.74-8.34-.73-1.28-2.83-.74-2.8.76.08,3.3.28,6.86,2.32,9.62.97,1.31,3.17.6,2.74-1.16-.71-2.93-1.87-5.75-3.41-8.34-.99-1.66-3.58-.15-2.59,1.51h0Z"/>
    </g>
  </g>
</svg>