<?xml version="1.0" encoding="UTF-8"?>
<svg xmlns="http://www.w3.org/2000/svg" version="1.1" viewBox="0 0 2200 2200">
  <defs>
    <style>
      .cls-1 {
        fill: #c7dfe5;
      }

      .cls-2 {
        fill: #b4cfd6;
      }
    </style>
  </defs>
  <!-- Generator: Adobe Illustrator 28.7.3, SVG Export Plug-In . SVG Version: 1.2.0 Build 164)  -->
  <g>
    <g id="Objects">
      <g>
        <path class="cls-1" d="M1645.3,867.05c4.08-15.96,6.25-32.68,6.25-49.91,0-111.03-90-201.03-201.03-201.03-28.89,0-56.35,6.11-81.17,17.08-78.97-98.27-200.14-161.18-336.02-161.18-212.04,0-388.31,153.17-424.2,354.9-5.32-.26-10.67-.4-16.05-.4-177.88,0-322.08,144.2-322.08,322.08s135.34,313.05,305.53,321.66c26.02,161.99,166.42,285.75,335.75,285.75,122.14,0,229.23-64.4,289.2-161.09,42.76,30.64,95.15,48.69,151.77,48.69,113.98,0,210.87-73.12,246.36-175,11.6,1.35,23.4,2.07,35.37,2.07,166.74,0,301.91-135.17,301.91-301.91s-129.63-296.27-291.58-301.71Z"/>
        <path class="cls-2" d="M1578.13,759.55c0-48.75-18.18-93.25-48.12-127.11,71.49,30.81,121.54,101.91,121.54,184.7,0,1.33.13,23.57-6.25,49.91,0,0-59.17-1.49-84.12,6.34,13.73-49.18,16.95-97.39,16.95-113.84Z"/>
        <path class="cls-2" d="M1936.88,1168.76c0,166.74-135.17,301.91-301.9,301.91-11.97,0-23.77-.72-35.37-2.08-35.49,101.89-132.38,175.01-246.36,175.01-56.62,0-109.01-18.05-151.77-48.69-59.97,96.69-167.06,161.09-289.2,161.09-169.33,0-309.74-123.76-335.76-285.75-166.87-8.45-300.24-143.92-305.36-311.65,34.72,124.87,146.26,217.76,280.51,224.56,24.84,154.67,158.9,272.84,320.58,272.84,116.63,0,218.88-61.49,276.14-153.81,40.83,29.25,90.85,46.48,144.91,46.48,108.84,0,201.35-69.81,235.24-167.09,11.08,1.29,22.34,1.98,33.77,1.98,159.2,0,288.27-129.07,288.27-288.27,0-74.51-28.27-142.42-74.67-193.57,95.74,50.62,160.97,151.21,160.97,267.04Z"/>
      </g>
    </g>
  </g>
</svg>